<?xml version="1.0" encoding="utf-8"?>
<!-- Generator: Adobe Illustrator 15.1.0, SVG Export Plug-In  -->
<!DOCTYPE svg PUBLIC "-//W3C//DTD SVG 1.1//EN" "http://www.w3.org/Graphics/SVG/1.1/DTD/svg11.dtd" [
	<!ENTITY ns_flows "http://ns.adobe.com/Flows/1.0/">
]>
<svg version="1.1"
	 xmlns="http://www.w3.org/2000/svg" xmlns:xlink="http://www.w3.org/1999/xlink" xmlns:a="http://ns.adobe.com/AdobeSVGViewerExtensions/3.0/"
	 x="0px" y="0px" width="289px" height="65px" viewBox="-1.129 -1 289 65" enable-background="new -1.129 -1 289 65"
	 xml:space="preserve">
<defs>
</defs>
<polygon fill-rule="evenodd" clip-rule="evenodd" fill="#974578" points="31.521,63.039 33.138,62.997 34.733,62.869 36.305,62.666 
	37.854,62.396 39.377,62.036 40.871,61.614 42.336,61.114 43.767,60.55 45.166,59.917 46.521,59.225 47.84,58.457 49.121,57.638 
	50.354,56.76 51.543,55.823 52.694,54.831 53.79,53.783 54.829,52.688 55.822,51.544 56.76,50.355 57.643,49.12 58.462,47.842 
	59.223,46.521 59.92,45.159 60.55,43.766 61.121,42.337 61.615,40.871 62.043,39.378 62.394,37.853 62.673,36.307 62.87,34.734 
	62.997,33.139 63.037,31.515 62.997,29.898 62.87,28.304 62.673,26.731 62.394,25.176 62.043,23.658 61.615,22.166 61.121,20.7 
	60.55,19.27 59.92,17.871 59.223,16.517 58.462,15.195 57.643,13.916 56.76,12.679 55.822,11.484 54.829,10.342 53.79,9.247 
	52.694,8.208 51.543,7.214 50.354,6.276 49.121,5.394 47.84,4.574 46.521,3.813 45.166,3.117 43.767,2.485 42.336,1.916 
	40.871,1.423 39.377,0.993 37.854,0.643 36.305,0.364 34.733,0.167 33.138,0.04 31.521,0 29.899,0.04 28.304,0.167 26.732,0.364 
	25.183,0.643 23.658,0.993 22.165,1.423 20.699,1.916 19.269,2.485 17.87,3.117 16.516,3.813 15.195,4.574 13.915,5.394 
	12.683,6.276 11.484,7.214 10.341,8.208 9.246,9.247 8.207,10.342 7.214,11.484 6.276,12.679 5.394,13.916 4.574,15.195 
	3.814,16.517 3.116,17.871 2.486,19.27 1.914,20.7 1.422,22.166 0.993,23.658 0.642,25.176 0.363,26.731 0.166,28.304 0.04,29.898 
	0,31.515 0.04,33.139 0.166,34.734 0.363,36.307 0.642,37.853 0.993,39.378 1.422,40.871 1.914,42.337 2.486,43.766 3.116,45.159 
	3.814,46.521 4.574,47.842 5.394,49.12 6.276,50.355 7.214,51.544 8.207,52.688 9.246,53.783 10.341,54.831 11.484,55.823 
	12.683,56.76 13.915,57.638 15.195,58.457 16.516,59.225 17.87,59.917 19.269,60.55 20.699,61.114 22.165,61.614 23.658,62.036 
	25.183,62.396 26.732,62.666 28.304,62.869 29.899,62.997 31.521,63.039 "/>
<polygon fill-rule="evenodd" clip-rule="evenodd" fill="#FFFFFF" points="31.521,61.418 33.055,61.383 34.568,61.264 36.06,61.07 
	37.53,60.813 38.976,60.475 40.395,60.071 41.781,59.602 43.137,59.06 44.46,58.462 45.753,57.801 47.005,57.077 48.214,56.299 
	49.389,55.464 50.516,54.577 51.603,53.632 52.647,52.648 53.64,51.604 54.578,50.514 55.464,49.39 56.299,48.217 57.08,46.997 
	57.8,45.752 58.462,44.46 59.065,43.137 59.6,41.781 60.074,40.395 60.475,38.975 60.81,37.53 61.07,36.06 61.263,34.568 
	61.381,33.056 61.42,31.515 61.381,29.983 61.263,28.469 61.07,26.977 60.81,25.507 60.475,24.062 60.074,22.642 59.6,21.254 
	59.065,19.9 58.462,18.572 57.8,17.284 57.08,16.031 56.299,14.823 55.464,13.648 54.578,12.513 53.64,11.433 52.647,10.389 
	51.603,9.396 50.516,8.458 49.389,7.573 48.214,6.737 47.005,5.957 45.753,5.237 44.46,4.574 43.137,3.971 41.781,3.437 
	40.395,2.962 38.976,2.561 37.53,2.226 36.06,1.967 34.568,1.773 33.055,1.656 31.521,1.616 29.981,1.656 28.469,1.773 
	26.976,1.967 25.505,2.226 24.061,2.561 22.642,2.962 21.254,3.437 19.9,3.971 18.572,4.574 17.284,5.237 16.031,5.957 
	14.822,6.737 13.647,7.573 12.521,8.458 11.433,9.396 10.389,10.389 9.397,11.433 8.459,12.513 7.572,13.648 6.737,14.823 
	5.957,16.031 5.236,17.284 4.574,18.572 3.972,19.9 3.436,21.254 2.963,22.642 2.561,24.062 2.226,25.507 1.967,26.977 
	1.773,28.469 1.655,29.983 1.615,31.515 1.655,33.056 1.773,34.568 1.967,36.06 2.226,37.53 2.561,38.975 2.963,40.395 
	3.436,41.781 3.972,43.137 4.574,44.46 5.236,45.752 5.957,46.997 6.737,48.217 7.572,49.39 8.459,50.514 9.397,51.604 
	10.389,52.648 11.433,53.632 12.521,54.577 13.647,55.464 14.822,56.299 16.031,57.077 17.284,57.801 18.572,58.462 19.9,59.06 
	21.254,59.602 22.642,60.071 24.061,60.475 25.505,60.813 26.976,61.07 28.469,61.264 29.981,61.383 31.521,61.418 "/>
<polygon fill-rule="evenodd" clip-rule="evenodd" fill="#974578" points="31.521,51.579 32.547,51.553 33.563,51.473 34.568,51.345 
	35.552,51.173 36.526,50.95 37.471,50.675 38.409,50.359 39.319,49.996 40.202,49.597 41.072,49.153 41.907,48.669 42.719,48.146 
	43.507,47.588 44.268,46.991 45,46.355 45.689,45.69 46.362,44.991 46.99,44.268 47.588,43.508 48.147,42.721 48.668,41.909 
	49.152,41.064 49.597,40.2 50.004,39.312 50.358,38.401 50.673,37.474 50.949,36.517 51.173,35.553 51.351,34.568 51.473,33.563 
	51.556,32.546 51.583,31.515 51.556,30.49 51.473,29.468 51.351,28.469 51.173,27.484 50.949,26.511 50.673,25.563 50.358,24.626 
	50.004,23.718 49.597,22.835 49.152,21.964 48.668,21.126 48.147,20.317 47.588,19.53 46.99,18.769 46.362,18.038 45.689,17.339 
	45,16.674 44.268,16.047 43.507,15.448 42.719,14.889 41.907,14.369 41.072,13.883 40.202,13.44 39.319,13.034 38.409,12.679 
	37.471,12.364 36.526,12.087 35.552,11.863 34.568,11.686 33.563,11.564 32.547,11.482 31.521,11.454 30.49,11.482 29.473,11.564 
	28.469,11.686 27.484,11.863 26.511,12.087 25.565,12.364 24.627,12.679 23.718,13.034 22.835,13.44 21.964,13.883 21.129,14.369 
	20.317,14.889 19.53,15.448 18.769,16.047 18.037,16.674 17.347,17.339 16.673,18.038 16.047,18.769 15.448,19.53 14.888,20.317 
	14.369,21.126 13.884,21.964 13.438,22.835 13.033,23.718 12.678,24.626 12.363,25.563 12.087,26.511 11.862,27.484 11.685,28.469 
	11.563,29.468 11.481,30.49 11.454,31.515 11.481,32.546 11.563,33.563 11.685,34.568 11.862,35.553 12.087,36.517 12.363,37.474 
	12.678,38.401 13.033,39.312 13.438,40.2 13.884,41.064 14.369,41.909 14.888,42.721 15.448,43.508 16.047,44.268 16.673,44.991 
	17.347,45.69 18.037,46.355 18.769,46.991 19.53,47.588 20.317,48.146 21.129,48.669 21.964,49.153 22.835,49.597 23.718,49.996 
	24.627,50.359 25.565,50.675 26.511,50.95 27.484,51.173 28.469,51.345 29.473,51.473 30.49,51.553 31.521,51.579 "/>
<polygon fill-rule="evenodd" clip-rule="evenodd" fill="#FFFFFF" points="31.521,50.031 32.467,50.012 33.405,49.937 34.335,49.819 
	35.245,49.652 36.135,49.449 37.01,49.195 37.874,48.909 38.716,48.574 39.535,48.203 40.331,47.793 41.104,47.348 41.856,46.858 
	42.585,46.347 43.291,45.794 43.96,45.214 44.602,44.604 45.216,43.959 45.8,43.282 46.347,42.584 46.868,41.858 47.348,41.104 
	47.793,40.333 48.202,39.532 48.582,38.717 48.908,37.874 49.203,37.01 49.447,36.135 49.66,35.237 49.818,34.329 49.941,33.406 
	50.012,32.468 50.038,31.515 50.012,30.564 49.941,29.628 49.818,28.701 49.66,27.791 49.447,26.901 49.203,26.019 48.908,25.163 
	48.582,24.32 48.202,23.5 47.793,22.705 47.348,21.924 46.868,21.182 46.347,20.452 45.8,19.747 45.216,19.075 44.602,18.435 
	43.96,17.82 43.291,17.237 42.585,16.689 41.856,16.168 41.104,15.688 40.331,15.242 39.535,14.834 38.716,14.455 37.874,14.129 
	37.01,13.832 36.135,13.588 35.245,13.375 34.335,13.211 33.405,13.096 32.467,13.025 31.521,12.999 30.568,13.025 29.63,13.096 
	28.702,13.211 27.792,13.375 26.9,13.588 26.026,13.832 25.163,14.129 24.32,14.455 23.5,14.834 22.705,15.242 21.933,15.688 
	21.181,16.168 20.451,16.689 19.746,17.237 19.076,17.82 18.435,18.435 17.819,19.075 17.236,19.747 16.688,20.452 16.168,21.182 
	15.688,21.924 15.243,22.705 14.833,23.5 14.455,24.32 14.128,25.163 13.833,26.019 13.588,26.901 13.375,27.791 13.218,28.701 
	13.096,29.628 13.025,30.564 12.997,31.515 13.025,32.468 13.096,33.406 13.218,34.329 13.375,35.237 13.588,36.135 13.833,37.01 
	14.128,37.874 14.455,38.717 14.833,39.532 15.243,40.333 15.688,41.104 16.168,41.858 16.688,42.584 17.236,43.282 17.819,43.959 
	18.435,44.604 19.076,45.214 19.746,45.794 20.451,46.347 21.181,46.858 21.933,47.348 22.705,47.793 23.5,48.203 24.32,48.574 
	25.163,48.909 26.026,49.195 26.9,49.449 27.792,49.652 28.702,49.819 29.63,49.937 30.568,50.012 31.521,50.031 "/>
<path fill-rule="evenodd" clip-rule="evenodd" fill="#974578" d="M31.521,13.313l5.257,5.503l7.611-0.168l-0.177,7.611l5.512,5.256
	l-5.512,5.264l0.177,7.604l-7.611-0.17l-5.257,5.503l-5.263-5.503l-7.612,0.17l0.178-7.604l-5.512-5.264l5.512-5.256l-0.178-7.611
	l7.612,0.168L31.521,13.313L31.521,13.313z M31.521,15.388l4.654,4.882l6.749-0.158l-0.158,6.742l4.881,4.66l-4.881,4.66
	l0.158,6.744l-6.749-0.152l-4.654,4.877l-4.66-4.877l-6.749,0.152l0.158-6.744l-4.882-4.66l4.882-4.66l-0.158-6.742l6.749,0.158
	L31.521,15.388L31.521,15.388z"/>
<path fill-rule="evenodd" clip-rule="evenodd" fill="#974578" d="M10.602,36.944l0.276,0.842l-3.554,3.188l0.007,0.032l4.153-1.345
	l0.248,0.763L6.004,42.29l-0.267-0.835l3.553-3.19l-0.014-0.033l-4.149,1.348l-0.252-0.776L10.602,36.944L10.602,36.944z
	 M9.869,31.659l0.102,0.835l-1.792,0.69L8.38,34.78l1.907,0.233l0.102,0.841l-6.26-1.008l-0.091-0.695L9.869,31.659L9.869,31.659z
	 M7.544,33.461L5.476,34.3l0.007,0.047l2.203,0.322L7.544,33.461L7.544,33.461z M10.424,26.993l-0.114,0.866l-4.593,1.315
	l-0.008,0.035l4.317,0.603l-0.106,0.8l-5.965-0.835l0.126-0.872l4.585-1.31l0.004-0.035l-4.318-0.613l0.111-0.797L10.424,26.993
	L10.424,26.993z M12.13,21.993l-0.35,0.851l-3.361,0.382l0.458,0.796l2.087,0.838l-0.299,0.754l-5.587-2.25l0.304-0.752l2.423,0.978
	l-1.67-2.843l0.354-0.882l1.477,2.643L12.13,21.993L12.13,21.993z M14.794,17.721l-0.468,0.705l-1.813-0.621l-0.875,1.345
	l1.304,1.408l-0.457,0.71l-4.148-4.8l0.381-0.585L14.794,17.721L14.794,17.721z M11.843,17.608l-2.116-0.685L9.7,16.96l1.478,1.667
	L11.843,17.608L11.843,17.608z M17.162,15.499l-0.596,0.552l-4.109-4.4l0.595-0.557L17.162,15.499L17.162,15.499z M29.202,8.243
	l0.02,0.102l0.015,0.102l0.004,0.095l0.008,0.098v0.095l-0.008,0.096l-0.004,0.091l-0.007,0.086L29.213,9.09l-0.019,0.091
	l-0.02,0.082l-0.028,0.075L29.111,9.42l-0.028,0.076l-0.039,0.066l-0.043,0.076l-0.048,0.071l-0.047,0.06l-0.055,0.068l-0.06,0.056
	l-0.063,0.053l-0.066,0.054l-0.074,0.055l-0.08,0.044l-0.078,0.046l-0.091,0.04l-0.096,0.035l-0.098,0.036l-0.095,0.031
	l-0.109,0.026l-0.111,0.029l-0.114,0.021l-0.118,0.024l-0.107,0.011l-0.109,0.006l-0.102,0.009h-0.103l-0.102-0.009l-0.099-0.006
	l-0.086-0.011l-0.091-0.018l-0.091-0.027l-0.078-0.02l-0.083-0.035l-0.074-0.031l-0.076-0.044l-0.07-0.04l-0.059-0.053l-0.071-0.046
	l-0.059-0.064l-0.056-0.056l-0.055-0.06l-0.047-0.071l-0.055-0.066L25.88,9.68l-0.047-0.076l-0.039-0.073L25.759,9.44l-0.036-0.082
	l-0.032-0.091l-0.028-0.095L25.64,9.077l-0.028-0.093l-0.019-0.106L24.856,4.68l0.799-0.142l0.74,4.196l0.025,0.143l0.035,0.13
	l0.046,0.124l0.048,0.104l0.063,0.093l0.063,0.091l0.067,0.076l0.083,0.06l0.083,0.053l0.087,0.044l0.091,0.031l0.094,0.024
	l0.099,0.011l0.105,0.009l0.106-0.009l0.107-0.011l0.11-0.029l0.102-0.027l0.099-0.044l0.086-0.047l0.083-0.055l0.074-0.058
	l0.068-0.07l0.063-0.084l0.047-0.078l0.044-0.1l0.031-0.102l0.024-0.111l0.003-0.113V8.66L28.43,8.531l-0.024-0.146l-0.737-4.197
	l0.792-0.142L29.202,8.243L29.202,8.243z M34.429,10.154l-0.883-0.055l-1.627-4.492l-0.035-0.009l-0.299,4.354l-0.812-0.055l0.418-6
	l0.886,0.058l1.62,4.485h0.035l0.307-4.345l0.808,0.053L34.429,10.154L34.429,10.154z M37.92,10.917l-0.781-0.204l1.561-5.82
	l0.78,0.213L37.92,10.917L37.92,10.917z M46.887,8.531l-4.487,4.467l-0.618-0.339l1.411-6.181l0.74,0.408l-1.131,4.649l0.016,0.004
	l3.337-3.418L46.887,8.531L46.887,8.531z M47.553,17.044l-2.629-2.443l4.106-4.409l2.498,2.336l-0.449,0.485l-1.911-1.78
	l-1.272,1.37l1.753,1.628l-0.461,0.492l-1.753-1.637l-1.461,1.577l2.036,1.896L47.553,17.044L47.553,17.044z M50.488,21.173
	l-0.457-0.705l1.504-2.47l-0.512-0.78l-2.183,1.414l-0.445-0.678l5.05-3.277l0.957,1.472l0.11,0.177l0.087,0.178l0.043,0.083
	l0.036,0.087l0.032,0.091l0.027,0.082l0.019,0.086l0.025,0.082l0.011,0.091l0.017,0.082l0.003,0.084l0.008,0.078v0.091l-0.008,0.082
	l-0.003,0.084l-0.024,0.082l-0.02,0.075l-0.019,0.078l-0.035,0.08l-0.032,0.076l-0.051,0.073l-0.047,0.076l-0.055,0.069
	l-0.055,0.073l-0.067,0.07l-0.067,0.067l-0.074,0.064l-0.083,0.066l-0.091,0.064l-0.094,0.067l-0.146,0.09l-0.141,0.067
	l-0.146,0.062l-0.134,0.049l-0.071,0.011l-0.066,0.016l-0.068,0.007l-0.071,0.004l-0.066,0.009l-0.071-0.009h-0.059l-0.071-0.011
	l-0.123-0.021l-0.122-0.035l-0.117-0.04l-0.106-0.051l-0.106-0.051l-0.095-0.063l-0.094-0.066l-0.083-0.084L50.488,21.173
	L50.488,21.173z M53.557,18.002l0.095-0.069l0.09-0.067l0.075-0.082l0.067-0.083l0.055-0.083l0.04-0.086l0.036-0.098l0.026-0.102
	l0.009-0.049l0.003-0.055v-0.056L54.05,17.12l-0.016-0.109l-0.028-0.125l-0.047-0.122l-0.055-0.124l-0.067-0.137l-0.091-0.138
	l-0.418-0.649l-1.745,1.13l0.543,0.827l0.051,0.091l0.072,0.076l0.067,0.073l0.071,0.06l0.074,0.064l0.083,0.046l0.079,0.047
	l0.091,0.044l0.046,0.011l0.048,0.016l0.047,0.009l0.051,0.004h0.047h0.055l0.047-0.004l0.056-0.009l0.102-0.027l0.11-0.044
	l0.114-0.051L53.557,18.002L53.557,18.002z M53.904,25.046l-0.094,0.035l-0.091,0.035l-0.094,0.027l-0.091,0.02l-0.086,0.013
	l-0.091,0.016l-0.087,0.002l-0.09,0.009l-0.082-0.009l-0.087-0.002l-0.083-0.009l-0.083-0.02l-0.083-0.02l-0.082-0.023l-0.083-0.031
	l-0.074-0.037l-0.083-0.036l-0.074-0.046l-0.067-0.047l-0.076-0.048l-0.071-0.053l-0.059-0.064L52.021,24.7l-0.059-0.073
	l-0.055-0.066l-0.056-0.073l-0.054-0.084l-0.056-0.083l-0.047-0.086l-0.047-0.1l-0.047-0.093l-0.043-0.095l-0.031-0.106
	l-0.037-0.103l-0.035-0.095l-0.019-0.093l-0.02-0.1l-0.016-0.095l-0.013-0.093l-0.007-0.091v-0.087v-0.091l0.016-0.091l0.004-0.086
	l0.023-0.082l0.02-0.084l0.028-0.082l0.031-0.082l0.035-0.08l0.043-0.076l0.041-0.077l0.046-0.066l0.048-0.069l0.047-0.062
	l0.056-0.062l0.062-0.061l0.063-0.055L52,21.822l0.072-0.046l0.074-0.047l0.074-0.044l0.076-0.047l0.083-0.036l0.083-0.031
	l0.225-0.1l0.307,0.753l-0.197,0.078l-0.117,0.051l-0.111,0.064l-0.095,0.063l-0.083,0.075l-0.074,0.075l-0.06,0.082L52.206,22.8
	l-0.039,0.102L52.131,23l-0.02,0.104l-0.012,0.095v0.102l0.004,0.098l0.016,0.102l0.027,0.095l0.031,0.095l0.056,0.126l0.063,0.113
	l0.063,0.096l0.074,0.091l0.076,0.073l0.082,0.067l0.083,0.05l0.094,0.041l0.088,0.028l0.099,0.02l0.094,0.007l0.094,0.009
	l0.099-0.009l0.094-0.02l0.103-0.026l0.094-0.036l0.083-0.035l0.071-0.046l0.066-0.056l0.066-0.06l0.056-0.07l0.055-0.082
	l0.048-0.087l0.043-0.095l0.031-0.111l0.036-0.111l0.027-0.122l0.02-0.129l0.023-0.131l0.013-0.146l0.008-0.148l0.003-0.157
	l-0.003-0.222l0.003-0.204L54.2,22.11l0.019-0.178l0.028-0.166l0.043-0.158l0.04-0.142l0.056-0.125l0.054-0.115l0.068-0.111
	l0.074-0.102l0.091-0.091l0.086-0.082l0.107-0.066l0.106-0.069l0.119-0.056l0.086-0.026l0.083-0.026l0.089-0.029l0.083-0.012
	l0.083-0.024l0.079-0.004l0.082-0.007h0.083l0.083,0.007l0.082,0.004L56,20.549l0.083,0.013l0.074,0.027l0.083,0.02l0.074,0.035
	l0.076,0.036l0.074,0.04l0.075,0.042l0.071,0.04l0.067,0.046l0.068,0.056l0.063,0.048l0.055,0.063l0.06,0.056l0.051,0.06
	l0.055,0.062l0.047,0.066l0.04,0.071l0.047,0.075l0.044,0.076l0.031,0.073l0.036,0.084l0.043,0.102l0.031,0.102l0.028,0.102
	l0.027,0.1l0.016,0.093l0.012,0.095l0.008,0.098l0.007,0.089l-0.007,0.089l-0.008,0.084l-0.012,0.087l-0.023,0.082l-0.027,0.075
	l-0.027,0.083l-0.04,0.075l-0.04,0.067l-0.091,0.146l-0.102,0.13l-0.102,0.114l-0.118,0.111l-0.123,0.098l-0.129,0.079l-0.131,0.08
	l-0.142,0.066l-0.311-0.754l0.09-0.026l0.091-0.044l0.079-0.047l0.071-0.055l0.067-0.06l0.071-0.071l0.051-0.073l0.056-0.084
	l0.046-0.087l0.028-0.091l0.028-0.093l0.007-0.095v-0.098l-0.012-0.095l-0.028-0.102l-0.036-0.111l-0.046-0.091l-0.043-0.086
	l-0.051-0.082l-0.056-0.066l-0.063-0.064l-0.063-0.056l-0.067-0.046l-0.075-0.04l-0.074-0.027L56,21.31l-0.083-0.016h-0.082h-0.083
	l-0.078,0.016l-0.091,0.029l-0.091,0.027l-0.067,0.031l-0.066,0.035l-0.063,0.041l-0.056,0.048l-0.055,0.051l-0.047,0.053
	l-0.04,0.061l-0.036,0.063l-0.036,0.083l-0.027,0.086l-0.028,0.117l-0.011,0.131l-0.017,0.157l-0.011,0.162v0.193v0.204
	l-0.008,0.206l-0.012,0.2l-0.023,0.187l-0.024,0.177l-0.036,0.168l-0.043,0.167l-0.056,0.149l-0.051,0.146l-0.071,0.131
	l-0.074,0.122l-0.083,0.115l-0.094,0.104l-0.047,0.04l-0.055,0.047l-0.047,0.044l-0.056,0.031L54.03,24.99L53.904,25.046
	L53.904,25.046z M52.973,29.194l-0.117-0.8l5.969-0.833l0.111,0.798L52.973,29.194L52.973,29.194z M58.061,36.154l0.168-1.394
	l-5.317-0.649l0.102-0.81l5.315,0.654l0.168-1.401l0.667,0.082l-0.441,3.6L58.061,36.154L58.061,36.154z M56.91,42.421l-2.636-2.602
	l-2.581-0.836l0.252-0.776l2.576,0.845l3.661-0.556l-0.252,0.776l-2.821,0.372l-0.009,0.038l2.058,1.964L56.91,42.421L56.91,42.421z
	"/>
<polygon fill-rule="evenodd" clip-rule="evenodd" fill="#974578" points="12.445,48.323 12.531,48.323 12.623,48.305 12.705,48.285 
	12.78,48.259 12.854,48.219 12.929,48.178 13,48.129 13.059,48.067 13.115,48.008 13.162,47.945 13.206,47.868 13.244,47.794 
	13.272,47.719 13.292,47.637 13.308,47.547 13.312,47.459 13.308,47.368 13.292,47.286 13.272,47.205 13.244,47.126 13.206,47.049 
	13.162,46.972 13.115,46.912 13.059,46.85 13,46.795 12.929,46.74 12.854,46.698 12.78,46.663 12.705,46.632 12.623,46.607 
	12.531,46.597 12.445,46.597 12.354,46.597 12.272,46.607 12.192,46.632 12.11,46.663 12.035,46.698 11.964,46.74 11.897,46.795 
	11.834,46.85 11.779,46.912 11.725,46.972 11.685,47.049 11.649,47.126 11.618,47.205 11.594,47.286 11.582,47.368 11.582,47.459 
	11.582,47.547 11.594,47.637 11.618,47.719 11.649,47.794 11.685,47.868 11.725,47.945 11.779,48.008 11.834,48.067 11.897,48.129 
	11.964,48.178 12.035,48.219 12.11,48.259 12.192,48.285 12.272,48.305 12.354,48.323 12.445,48.323 "/>
<polygon fill-rule="evenodd" clip-rule="evenodd" fill="#974578" points="50.93,48.237 51.013,48.237 51.099,48.219 51.182,48.199 
	51.265,48.173 51.338,48.133 51.411,48.092 51.478,48.043 51.54,47.981 51.591,47.922 51.643,47.859 51.69,47.782 51.721,47.708 
	51.749,47.633 51.772,47.551 51.785,47.461 51.792,47.373 51.785,47.282 51.772,47.2 51.749,47.119 51.721,47.04 51.69,46.963 
	51.643,46.886 51.591,46.826 51.54,46.764 51.478,46.709 51.411,46.654 51.338,46.612 51.265,46.577 51.182,46.546 51.099,46.521 
	51.013,46.511 50.93,46.511 50.838,46.511 50.752,46.521 50.669,46.546 50.586,46.577 50.512,46.612 50.445,46.654 50.375,46.709 
	50.314,46.764 50.26,46.826 50.212,46.886 50.162,46.963 50.129,47.04 50.102,47.119 50.083,47.2 50.067,47.282 50.059,47.373 
	50.067,47.461 50.083,47.551 50.102,47.633 50.129,47.708 50.162,47.782 50.212,47.859 50.26,47.922 50.314,47.981 50.375,48.043 
	50.445,48.092 50.512,48.133 50.586,48.173 50.669,48.199 50.752,48.219 50.838,48.237 50.93,48.237 "/>
<polygon fill-rule="evenodd" clip-rule="evenodd" fill="#974578" points="36.034,32.722 35.962,36.666 35.95,36.814 35.942,36.962 
	35.939,37.109 35.922,37.26 35.915,37.4 35.902,37.555 35.895,37.702 35.887,37.844 35.868,38.105 35.859,38.3 35.856,38.421 
	35.856,38.477 35.856,38.938 35.737,39.653 35.671,40.407 35.643,40.509 35.607,40.63 35.56,40.784 35.498,40.952 35.466,41.045 
	35.422,41.12 35.383,41.18 35.328,41.23 35.308,41.25 35.273,41.261 35.245,41.276 35.209,41.28 35.151,41.296 35.076,41.289 
	34.957,41.289 34.863,41.276 34.819,41.27 34.789,41.254 34.753,41.241 34.725,41.23 34.705,41.206 34.686,41.186 34.67,41.152 
	34.659,41.113 34.63,41.017 34.614,40.891 34.614,40.77 34.614,40.668 34.622,40.591 34.634,40.535 34.855,38.142 35.076,33.852 
	35.115,32.759 34.807,32.814 34.576,32.858 34.418,32.878 34.342,32.885 34.26,32.889 34.189,32.889 34.13,32.885 34.067,32.869 
	34.02,32.85 33.98,32.823 33.944,32.783 33.917,32.739 33.882,32.652 33.862,32.57 33.854,32.528 33.854,32.494 33.854,32.459 
	33.862,32.424 33.871,32.366 33.878,32.302 33.891,32.24 33.917,32.185 33.944,32.134 33.98,32.082 34.02,32.027 34.067,31.979 
	34.13,31.941 34.205,31.892 34.307,31.85 34.429,31.81 34.568,31.766 34.733,31.735 34.91,31.699 35.115,31.663 35.076,30.699 
	34.867,30.735 34.69,30.755 34.614,30.755 34.54,30.755 34.473,30.75 34.418,30.742 34.348,30.735 34.28,30.726 34.216,30.714 
	34.166,30.694 34.11,30.672 34.059,30.652 34.02,30.624 33.985,30.593 33.953,30.564 33.925,30.521 33.901,30.481 33.882,30.438 
	33.871,30.391 33.862,30.345 33.862,30.289 33.862,30.233 33.871,30.174 33.882,30.12 33.901,30.056 33.929,30.001 33.965,29.946 
	34.008,29.892 34.059,29.843 34.122,29.797 34.158,29.771 34.213,29.75 34.272,29.73 34.342,29.714 34.528,29.681 34.761,29.646 
	35.032,29.62 35.355,29.593 35.726,29.556 36.143,29.523 36.459,29.497 36.77,29.468 37.081,29.446 37.396,29.418 37.711,29.396 
	38.019,29.367 38.333,29.341 38.649,29.315 38.854,29.304 39.043,29.304 39.208,29.315 39.35,29.345 39.476,29.372 39.578,29.4 
	39.654,29.433 39.717,29.462 39.755,29.491 39.796,29.517 39.839,29.549 39.866,29.584 39.898,29.62 39.925,29.655 39.95,29.694 
	39.968,29.732 40.004,29.813 40.028,29.878 40.052,29.944 40.063,29.99 40.063,30.03 40.063,30.071 40.056,30.111 40.044,30.152 
	40.028,30.178 40.009,30.207 39.98,30.227 39.95,30.253 39.866,30.297 39.755,30.345 39.634,30.385 39.48,30.42 39.319,30.462 
	39.126,30.49 39.162,31.501 39.488,31.542 39.736,31.586 39.831,31.606 39.898,31.624 39.953,31.646 39.988,31.663 40.009,31.692 
	40.028,31.735 40.044,31.774 40.063,31.836 40.079,31.905 40.083,31.979 40.09,32.069 40.1,32.174 40.1,32.227 40.09,32.267 
	40.071,32.315 40.052,32.357 40.016,32.393 39.98,32.424 39.933,32.452 39.886,32.479 39.823,32.499 39.755,32.516 39.681,32.528 
	39.599,32.544 39.509,32.546 39.413,32.555 39.312,32.555 39.201,32.546 39.236,39.572 39.236,39.853 39.228,40.099 39.217,40.324 
	39.201,40.524 39.189,40.688 39.162,40.824 39.142,40.935 39.106,41.017 39.07,41.085 39.04,41.14 39.004,41.186 38.961,41.221 
	38.921,41.254 38.881,41.276 38.838,41.289 38.791,41.289 38.736,41.289 38.68,41.289 38.633,41.276 38.586,41.254 38.543,41.23 
	38.503,41.203 38.467,41.159 38.437,41.113 38.409,41.058 38.381,41.001 38.361,40.935 38.346,40.859 38.333,40.778 38.326,40.688 
	38.318,40.6 38.318,40.498 38.279,37.93 38.244,32.591 38.102,32.61 37.963,32.63 37.826,32.637 37.687,32.646 37.408,32.652 
	37.136,32.652 36.86,32.652 36.588,32.656 36.451,32.665 36.305,32.677 36.171,32.691 36.034,32.722 "/>
<polygon fill-rule="evenodd" clip-rule="evenodd" fill="#FFFFFF" points="36.034,31.586 36.313,31.571 36.588,31.562 36.86,31.551 
	37.136,31.542 37.416,31.531 37.687,31.522 37.963,31.506 38.244,31.501 38.208,30.529 37.917,30.542 37.633,30.558 37.36,30.564 
	37.093,30.569 36.825,30.584 36.553,30.604 36.277,30.624 35.998,30.659 36.034,31.586 "/>
<polygon fill-rule="evenodd" clip-rule="evenodd" fill="#974578" points="35.781,23.008 35.757,22.862 35.745,22.713 35.729,22.567 
	35.726,22.418 35.718,22.35 35.726,22.279 35.729,22.221 35.745,22.157 35.765,22.102 35.785,22.048 35.82,22 35.856,21.962 
	35.887,21.913 35.931,21.862 35.97,21.822 36.017,21.787 36.069,21.76 36.116,21.74 36.163,21.72 36.218,21.705 36.266,21.711 
	36.313,21.729 36.353,21.755 36.396,21.787 36.443,21.831 36.487,21.887 36.526,21.944 36.564,22.02 36.608,22.11 36.64,22.221 
	36.675,22.354 36.703,22.507 36.723,22.685 36.746,22.882 36.758,23.104 36.77,23.348 36.848,24.944 36.848,25.046 36.848,25.183 
	36.848,25.361 36.848,25.573 36.833,25.806 36.813,26.026 36.793,26.239 36.77,26.429 36.738,26.604 36.703,26.771 36.667,26.928 
	36.62,27.067 36.573,27.197 36.51,27.311 36.435,27.429 36.353,27.54 36.257,27.642 36.147,27.737 36.034,27.826 35.902,27.91 
	35.833,27.94 35.753,27.986 35.663,28.023 35.56,28.063 35.336,28.145 35.068,28.236 34.761,28.322 34.409,28.414 34.028,28.504 
	33.61,28.6 33.641,31.501 33.641,32.591 33.567,37.129 33.563,37.295 33.546,37.474 33.536,37.66 33.519,37.865 33.5,38.086 
	33.488,38.311 33.464,38.558 33.437,38.812 33.417,39.067 33.39,39.312 33.362,39.543 33.331,39.755 33.295,39.962 33.26,40.154 
	33.224,40.333 33.185,40.498 33.138,40.639 33.09,40.77 33.063,40.824 33.027,40.88 33,40.926 32.964,40.97 32.933,41.001 
	32.897,41.038 32.857,41.064 32.822,41.085 32.783,41.104 32.74,41.12 32.692,41.124 32.652,41.124 32.602,41.124 32.563,41.124 
	32.527,41.124 32.487,41.12 32.452,41.104 32.424,41.094 32.396,41.073 32.377,41.049 32.35,41.021 32.337,40.992 32.314,40.961 
	32.302,40.926 32.287,40.844 32.282,40.74 32.282,40.556 32.282,40.423 32.282,40.324 32.282,40.286 32.542,36.505 32.609,31.501 
	32.609,28.265 32.609,28.032 32.609,27.804 32.602,27.587 32.598,27.367 32.582,27.149 32.57,26.937 32.553,26.724 32.542,26.518 
	32.522,26.318 32.507,26.141 32.5,25.983 32.495,25.842 32.487,25.719 32.495,25.608 32.495,25.518 32.5,25.452 32.507,25.305 
	32.515,25.176 32.527,25.046 32.542,24.915 32.57,24.802 32.598,24.682 32.629,24.574 32.672,24.472 32.72,24.367 32.768,24.272 
	32.822,24.183 32.885,24.095 32.951,24.021 33.019,23.946 33.103,23.869 33.185,23.809 33.275,23.745 33.37,23.687 33.48,23.622 
	33.603,23.567 33.724,23.514 33.871,23.458 34.011,23.403 34.17,23.354 34.342,23.308 34.512,23.261 34.705,23.212 34.894,23.17 
	35.32,23.088 35.781,23.008 "/>
<polygon fill-rule="evenodd" clip-rule="evenodd" fill="#FFFFFF" points="35.887,24.731 35.887,24.183 35.58,24.234 35.3,24.285 
	35.041,24.336 34.792,24.387 34.576,24.443 34.375,24.504 34.189,24.569 34.028,24.626 33.891,24.691 33.768,24.758 33.713,24.793 
	33.666,24.829 33.622,24.859 33.583,24.895 33.546,24.931 33.519,24.964 33.5,25.006 33.48,25.042 33.464,25.081 33.46,25.116 
	33.46,25.154 33.46,25.192 33.46,25.534 35.887,24.731 "/>
<polygon fill-rule="evenodd" clip-rule="evenodd" fill="#FFFFFF" points="33.567,26.791 33.567,27.42 34.055,27.353 34.477,27.283 
	34.662,27.251 34.843,27.208 34.997,27.177 35.134,27.134 35.265,27.094 35.375,27.05 35.47,27.003 35.552,26.964 35.623,26.917 
	35.671,26.866 35.691,26.846 35.702,26.819 35.718,26.799 35.726,26.771 35.765,26.558 35.805,26.334 35.848,26.085 35.887,25.826 
	33.536,26.66 33.567,26.791 "/>
<polygon fill-rule="evenodd" clip-rule="evenodd" fill="#974578" points="38.318,22.76 38.791,22.826 39.22,22.897 39.59,22.966 
	39.906,23.028 40.166,23.088 40.378,23.15 40.46,23.177 40.528,23.206 40.592,23.234 40.63,23.261 40.706,23.316 40.776,23.383 
	40.843,23.458 40.906,23.541 40.974,23.631 41.036,23.733 41.092,23.84 41.147,23.958 41.203,24.082 41.249,24.219 41.289,24.367 
	41.324,24.524 41.352,24.7 41.379,24.884 41.391,25.072 41.407,25.278 41.363,27.464 41.407,32.295 41.698,38.771 41.809,40.2 
	41.809,40.304 41.809,40.414 41.809,40.516 41.809,40.619 41.801,40.707 41.796,40.789 41.781,40.859 41.761,40.926 41.742,40.992 
	41.722,41.049 41.695,41.1 41.667,41.148 41.631,41.186 41.593,41.215 41.549,41.241 41.509,41.261 41.461,41.28 41.407,41.289 
	41.352,41.289 41.297,41.289 41.241,41.289 41.195,41.276 41.147,41.261 41.099,41.241 41.056,41.206 41.017,41.175 40.981,41.133 
	40.946,41.085 40.914,41.021 40.887,40.945 40.863,40.853 40.84,40.749 40.824,40.626 40.805,40.48 40.789,40.333 40.784,40.161 
	40.6,37.806 40.378,33.604 40.34,28.347 39.997,28.304 39.673,28.265 39.385,28.221 39.119,28.181 38.885,28.134 38.672,28.092 
	38.492,28.052 38.333,28.012 38.263,27.988 38.196,27.961 38.125,27.932 38.066,27.901 38.003,27.866 37.944,27.826 37.889,27.784 
	37.833,27.743 37.778,27.697 37.732,27.642 37.684,27.596 37.633,27.531 37.585,27.476 37.546,27.409 37.503,27.347 37.471,27.271 
	37.436,27.206 37.4,27.125 37.369,27.045 37.341,26.964 37.293,26.779 37.25,26.586 37.215,26.374 37.187,26.15 37.176,25.908 
	37.176,25.655 37.176,25.278 37.176,25.203 37.183,25.081 37.187,24.913 37.203,24.7 37.223,24.432 37.243,24.123 37.271,23.764 
	37.298,23.363 37.317,23.159 37.341,22.966 37.369,22.789 37.396,22.623 37.423,22.472 37.456,22.334 37.491,22.212 37.53,22.102 
	37.573,22 37.613,21.917 37.661,21.851 37.715,21.795 37.771,21.755 37.826,21.729 37.854,21.711 37.889,21.705 37.917,21.705 
	37.948,21.705 37.991,21.711 38.039,21.72 38.074,21.731 38.113,21.755 38.148,21.776 38.176,21.795 38.208,21.822 38.235,21.851 
	38.255,21.887 38.279,21.917 38.298,21.962 38.311,22.008 38.338,22.102 38.354,22.206 38.354,22.418 38.318,22.76 "/>
<polygon fill-rule="evenodd" clip-rule="evenodd" fill="#FFFFFF" points="40.378,27.17 40.358,27.05 40.351,26.956 40.351,26.89 
	40.358,26.835 40.366,26.786 40.371,26.724 40.386,26.649 40.395,26.558 40.399,26.476 40.407,26.409 40.414,26.363 40.414,26.334 
	40.386,26.313 40.34,26.298 40.276,26.29 40.186,26.287 38.429,25.95 38.133,25.908 38.125,25.983 38.113,26.055 38.105,26.101 
	38.102,26.176 38.105,26.278 38.113,26.416 38.121,26.449 38.125,26.482 38.148,26.527 38.168,26.558 38.204,26.593 38.235,26.629 
	38.279,26.66 38.326,26.695 38.44,26.764 38.586,26.835 38.751,26.892 38.941,26.956 40.119,27.125 40.378,27.17 "/>
<polygon fill-rule="evenodd" clip-rule="evenodd" fill="#FFFFFF" points="38.133,24.857 40.414,25.32 40.399,25.218 40.395,25.121 
	40.386,25.025 40.395,24.944 40.399,24.857 40.399,24.767 40.395,24.662 40.378,24.56 40.366,24.534 40.351,24.514 40.331,24.487 
	40.303,24.458 40.229,24.403 40.126,24.348 39.988,24.294 39.831,24.234 39.646,24.179 39.433,24.123 39.22,24.068 39.023,24.012 
	38.838,23.966 38.68,23.921 38.531,23.891 38.409,23.855 38.298,23.828 38.208,23.809 38.133,24.857 "/>
<polygon fill-rule="evenodd" clip-rule="evenodd" fill="#974578" points="25.86,25.534 25.821,22.547 25.821,22.405 25.821,22.268 
	25.825,22.146 25.841,22.028 25.86,21.917 25.888,21.822 25.916,21.731 25.952,21.649 25.99,21.583 26.03,21.521 26.085,21.468 
	26.141,21.417 26.195,21.386 26.266,21.356 26.334,21.339 26.408,21.33 26.463,21.33 26.511,21.343 26.558,21.356 26.601,21.386 
	26.633,21.417 26.668,21.461 26.696,21.507 26.723,21.563 26.743,21.625 26.763,21.694 26.786,21.776 26.798,21.871 26.826,22.084 
	26.846,22.334 26.889,25.534 27.094,25.462 27.354,25.396 27.653,25.325 27.96,25.259 28.106,25.218 28.248,25.183 28.378,25.144 
	28.497,25.101 28.59,25.066 28.674,25.025 28.702,25.006 28.728,24.986 28.74,24.964 28.756,24.944 28.804,24.767 28.847,24.569 
	28.877,24.356 28.898,24.123 28.922,23.904 28.933,23.737 28.949,23.622 28.961,23.556 28.969,23.514 28.976,23.474 28.976,23.429 
	28.976,23.383 28.867,22.461 28.851,22.461 28.851,22.454 28.851,22.438 28.867,22.418 28.871,22.35 28.895,22.268 28.926,22.173 
	28.976,22.064 29.001,22.008 29.036,21.962 29.08,21.913 29.126,21.878 29.174,21.842 29.222,21.815 29.284,21.802 29.343,21.787 
	29.367,21.787 29.395,21.795 29.415,21.802 29.434,21.807 29.48,21.842 29.529,21.887 29.576,21.938 29.62,22.015 29.666,22.095 
	29.714,22.186 29.757,22.288 29.797,22.381 29.825,22.481 29.851,22.576 29.878,22.669 29.891,22.769 29.907,22.855 29.915,22.946 
	29.919,23.115 29.927,23.268 29.934,23.398 29.934,23.514 29.927,23.708 29.915,23.911 29.899,24.099 29.887,24.294 29.863,24.487 
	29.843,24.675 29.825,24.859 29.805,25.046 29.788,25.137 29.776,25.223 29.757,25.314 29.729,25.396 29.702,25.471 29.666,25.554 
	29.63,25.629 29.592,25.695 29.548,25.766 29.501,25.833 29.453,25.899 29.399,25.963 29.339,26.019 29.275,26.081 29.209,26.137 
	29.138,26.185 29.055,26.232 28.953,26.278 28.824,26.325 28.689,26.369 28.367,26.456 28.016,26.531 27.673,26.604 27.354,26.677 
	27.078,26.735 26.889,26.791 26.874,26.928 26.866,27.094 26.861,27.292 26.866,27.504 26.874,27.622 26.866,27.724 26.861,27.819 
	26.846,27.91 26.826,27.986 26.806,28.059 26.771,28.118 26.735,28.174 26.704,28.229 26.66,28.271 26.621,28.304 26.573,28.34 
	26.527,28.358 26.476,28.374 26.428,28.387 26.373,28.387 26.313,28.394 26.251,28.394 26.195,28.378 26.149,28.358 26.108,28.322 
	26.065,28.282 26.03,28.236 26.006,28.174 25.896,27.17 25.86,26.791 25.561,26.759 25.21,26.715 24.841,26.668 24.466,26.613 
	24.106,26.558 23.792,26.5 23.663,26.465 23.548,26.42 23.458,26.389 23.391,26.345 23.288,26.267 23.198,26.176 23.11,26.081 
	23.031,25.972 22.973,25.853 22.91,25.74 22.862,25.6 22.823,25.462 22.788,25.32 22.752,25.163 22.724,24.999 22.697,24.822 
	22.677,24.636 22.658,24.438 22.642,24.234 22.638,24.021 22.623,23.622 22.615,23.321 22.615,23.212 22.623,23.115 22.63,23.057 
	22.638,23.008 22.638,22.931 22.642,22.855 22.658,22.78 22.669,22.705 22.693,22.623 22.72,22.54 22.744,22.461 22.78,22.379 
	22.823,22.303 22.862,22.232 22.91,22.173 22.965,22.122 23.028,22.09 23.087,22.064 23.15,22.048 23.224,22.043 23.292,22.075 
	23.355,22.102 23.383,22.122 23.411,22.166 23.445,22.221 23.485,22.294 23.52,22.379 23.548,22.454 23.576,22.521 23.595,22.591 
	23.595,23.727 23.706,24.356 23.752,24.645 23.8,24.884 23.819,24.986 23.848,25.072 23.875,25.148 23.903,25.218 23.918,25.23 
	23.929,25.246 23.958,25.259 23.993,25.274 24.068,25.3 24.162,25.32 24.41,25.37 24.702,25.407 25.013,25.443 25.325,25.478 
	25.612,25.507 25.86,25.534 "/>
<polygon fill-rule="evenodd" clip-rule="evenodd" fill="#974578" points="24.348,28.56 24.829,28.543 25.305,28.535 25.786,28.524 
	26.258,28.517 26.735,28.504 27.216,28.495 27.696,28.482 28.173,28.469 28.606,28.535 28.988,28.6 29.324,28.666 29.611,28.736 
	29.741,28.769 29.86,28.804 29.965,28.839 30.064,28.872 30.147,28.914 30.221,28.95 30.276,28.981 30.332,29.025 30.411,29.091 
	30.49,29.167 30.565,29.24 30.631,29.324 30.695,29.4 30.75,29.482 30.797,29.564 30.844,29.646 30.884,29.732 30.92,29.832 
	30.946,29.935 30.974,30.049 30.994,30.167 31.01,30.297 31.021,30.435 31.021,30.569 31.037,30.836 31.042,31.029 31.042,31.152 
	31.042,31.207 30.931,33.768 30.9,36.752 31.151,40.028 31.16,40.165 31.151,40.298 31.131,40.425 31.097,40.556 31.057,40.684 
	31.002,40.805 30.939,40.917 30.864,41.038 30.824,41.094 30.781,41.14 30.742,41.18 30.699,41.215 30.667,41.241 30.624,41.254 
	30.593,41.27 30.556,41.27 30.522,41.27 30.49,41.254 30.462,41.241 30.426,41.215 30.399,41.18 30.364,41.14 30.335,41.094 
	30.309,41.038 30.253,40.917 30.214,40.805 30.174,40.684 30.147,40.556 30.12,40.425 30.104,40.298 30.092,40.165 30.092,40.028 
	29.942,37.634 29.907,34.111 29.974,31.451 29.974,31.404 29.974,31.297 29.965,31.132 29.962,30.912 29.946,30.679 29.927,30.49 
	29.915,30.411 29.899,30.345 29.887,30.282 29.863,30.233 29.832,30.152 29.785,30.076 29.729,30.01 29.666,29.944 29.627,29.907 
	29.556,29.872 29.453,29.837 29.313,29.806 29.119,29.762 28.871,29.721 28.56,29.686 28.173,29.646 28.114,29.646 28.051,29.646 
	28.003,29.655 27.957,29.659 27.914,29.668 27.881,29.681 27.846,29.694 27.819,29.714 27.764,29.762 27.7,29.832 27.645,29.918 
	27.594,30.019 27.476,30.249 27.361,30.51 27.244,30.775 27.121,31.038 27.059,31.152 26.991,31.269 26.928,31.374 26.861,31.451 
	27.311,31.459 27.716,31.468 28.071,31.486 28.375,31.506 28.508,31.522 28.634,31.542 28.737,31.558 28.832,31.577 28.915,31.597 
	28.98,31.617 29.036,31.646 29.08,31.663 29.138,31.72 29.194,31.774 29.241,31.836 29.284,31.896 29.313,31.967 29.339,32.027 
	29.343,32.104 29.351,32.174 29.339,32.246 29.324,32.322 29.304,32.387 29.275,32.443 29.249,32.506 29.213,32.555 29.174,32.602 
	29.135,32.646 29.083,32.677 29.029,32.713 28.976,32.739 28.915,32.759 28.847,32.783 28.768,32.788 28.694,32.794 28.619,32.803 
	28.497,32.81 28.347,32.81 28.169,32.803 27.96,32.788 27.736,32.774 27.476,32.748 27.196,32.713 26.889,32.672 26.889,34.401 
	27.374,34.41 27.811,34.426 28.192,34.445 28.524,34.466 28.796,34.493 29.017,34.521 29.107,34.532 29.181,34.557 29.249,34.568 
	29.296,34.588 29.378,34.63 29.445,34.669 29.509,34.717 29.556,34.766 29.592,34.82 29.611,34.882 29.627,34.947 29.627,35.014 
	29.62,35.075 29.611,35.143 29.6,35.206 29.576,35.272 29.556,35.337 29.529,35.395 29.497,35.449 29.462,35.514 29.419,35.57 
	29.371,35.617 29.316,35.663 29.249,35.698 29.181,35.729 29.1,35.754 29.009,35.773 28.915,35.784 27.29,35.656 26.889,35.656 
	26.928,40.703 26.92,40.84 26.917,40.952 26.909,41.073 26.892,41.175 26.874,41.261 26.854,41.345 26.826,41.417 26.798,41.483 
	26.763,41.536 26.732,41.585 26.688,41.62 26.656,41.651 26.613,41.671 26.573,41.687 26.527,41.695 26.483,41.695 26.396,41.687 
	26.325,41.68 26.271,41.687 26.223,41.695 26.195,41.697 26.167,41.697 26.157,41.687 26.157,41.671 26.129,41.667 26.101,41.66 
	26.081,41.64 26.053,41.62 26.038,41.594 26.018,41.55 26.006,41.51 25.982,41.464 25.971,41.387 25.963,41.261 25.952,41.1 
	25.944,40.891 25.936,40.639 25.936,40.339 25.928,39.998 25.928,39.616 25.896,35.656 25.794,35.674 25.703,35.689 25.628,35.698 
	25.561,35.703 24.238,35.745 23.993,35.8 23.809,35.828 23.738,35.833 23.678,35.84 23.634,35.833 23.614,35.828 23.556,35.811 
	23.493,35.8 23.437,35.78 23.391,35.758 23.348,35.738 23.308,35.709 23.268,35.683 23.241,35.652 23.213,35.617 23.186,35.572 
	23.163,35.533 23.15,35.495 23.142,35.442 23.138,35.39 23.138,35.339 23.138,35.281 23.142,35.197 23.158,35.116 23.186,35.04 
	23.224,34.965 23.28,34.892 23.343,34.816 23.418,34.745 23.505,34.669 23.556,34.643 23.622,34.607 23.698,34.579 23.792,34.557 
	23.895,34.528 24.012,34.506 24.144,34.485 24.284,34.466 24.608,34.437 24.986,34.419 25.416,34.401 25.896,34.401 25.896,32.722 
	25.518,32.774 25.175,32.829 24.859,32.869 24.588,32.904 24.348,32.935 24.144,32.952 23.969,32.965 23.835,32.965 23.752,32.98 
	23.686,32.98 23.622,32.972 23.568,32.965 23.52,32.945 23.485,32.926 23.45,32.896 23.429,32.86 23.398,32.788 23.363,32.713 
	23.327,32.63 23.3,32.546 23.28,32.473 23.268,32.404 23.272,32.343 23.288,32.295 23.288,32.235 23.3,32.165 23.327,32.108 
	23.363,32.052 23.411,31.996 23.465,31.948 23.532,31.896 23.607,31.856 23.698,31.819 23.792,31.774 23.903,31.748 24.02,31.714 
	24.144,31.688 24.281,31.663 24.43,31.646 24.588,31.624 24.887,31.597 25.144,31.571 25.341,31.551 25.505,31.531 25.62,31.515 
	25.71,31.506 25.759,31.501 25.777,31.501 25.751,31.404 25.71,31.291 25.663,31.169 25.6,31.029 25.538,30.883 25.462,30.735 
	25.379,30.584 25.302,30.438 25.21,30.289 25.115,30.152 25.018,30.021 24.922,29.907 24.82,29.806 24.726,29.714 24.674,29.681 
	24.627,29.655 24.58,29.628 24.534,29.604 24.504,29.62 24.422,29.659 24.348,29.686 24.238,29.73 24.088,29.771 23.891,29.817 
	23.678,29.872 23.485,29.918 23.32,29.975 23.178,30.03 23.056,30.076 22.958,30.132 22.926,30.159 22.89,30.187 22.862,30.207 
	22.843,30.233 22.772,30.345 22.724,30.446 22.705,30.495 22.693,30.542 22.686,30.593 22.677,30.639 22.669,30.723 22.669,30.79 
	22.677,30.836 22.693,30.865 22.732,31.542 22.843,35.281 22.843,35.456 22.843,35.652 22.843,35.854 22.843,36.08 22.8,37.716 
	22.795,38.133 22.772,38.522 22.752,38.887 22.732,39.222 22.697,39.532 22.666,39.811 22.63,40.057 22.583,40.286 22.563,40.388 
	22.536,40.48 22.508,40.57 22.473,40.654 22.445,40.729 22.41,40.798 22.377,40.859 22.334,40.915 22.295,40.961 22.252,41.007 
	22.212,41.045 22.165,41.073 22.118,41.1 22.067,41.113 22.015,41.124 21.961,41.124 21.897,41.133 21.842,41.133 21.787,41.12 
	21.74,41.104 21.7,41.078 21.665,41.045 21.629,41.001 21.609,40.952 21.571,40.853 21.542,40.749 21.52,40.654 21.515,40.556 
	21.515,40.47 21.515,40.407 21.515,40.359 21.515,40.324 21.776,37.129 21.807,34.111 21.665,31.542 21.657,31.515 21.649,31.468 
	21.645,31.411 21.637,31.345 21.637,31.152 21.645,30.912 21.649,30.771 21.673,30.633 21.7,30.49 21.731,30.338 21.776,30.187 
	21.83,30.03 21.89,29.872 21.961,29.714 22.035,29.556 22.118,29.418 22.165,29.352 22.205,29.289 22.252,29.238 22.303,29.183 
	22.354,29.136 22.405,29.083 22.461,29.045 22.512,29.01 22.567,28.977 22.63,28.94 22.693,28.914 22.752,28.894 22.882,28.85 
	23.031,28.813 23.206,28.764 23.398,28.721 23.607,28.682 23.835,28.637 24.08,28.6 24.348,28.56 "/>
<polygon fill-rule="evenodd" clip-rule="evenodd" fill="#FFFFFF" points="25.848,29.556 26.814,29.556 26.325,30.578 25.848,29.556 
	"/>
<g>
	<g>
		<path fill="#974578" d="M21.503,53.068c-0.393,0.834-0.792,1.666-1.199,2.497c-0.076,0.048-0.123,0.194-0.134,0.439
			c-0.068,0.247-0.112,0.396-0.134,0.441c-0.155,0.206-0.406,0.262-0.743,0.155c-0.451-0.22-0.59-0.481-0.43-0.77
			c-0.02-0.067,0.045-0.134,0.193-0.2c0.146-0.066,0.238-0.134,0.273-0.201c0.528-0.982,1.045-1.969,1.551-2.957
			c-0.146,0.011-0.553-0.022-1.223-0.142c-0.051,0-0.094-0.011-0.13-0.032c-0.361-0.063-0.596-0.179-0.702-0.333
			c-0.296-0.336-0.348-0.524-0.173-0.56c0.028-0.043,0.148,0.006,0.361,0.141c0.107,0.067,0.203,0.113,0.289,0.135
			c0.372,0.197,0.789,0.32,1.24,0.359c0.047-0.002,0.12-0.007,0.218-0.013c0.084,0.017,0.175,0.021,0.271,0.013
			c0.024-0.045,0.052-0.101,0.087-0.169c0.045-0.089,0.104-0.159,0.174-0.208c0.035,0.018,0.078,0.025,0.125,0.02
			c0.204,0.132,0.382,0.271,0.534,0.426c0.089,0.097,0.127,0.21,0.113,0.34c-0.052,0.116-0.126,0.18-0.223,0.191
			C21.687,52.682,21.572,52.823,21.503,53.068z"/>
		<path fill="#974578" d="M30.494,56.439c-0.006,0.189-0.013,0.379-0.02,0.567c-0.159,1.46-1.692,2.274-4.496,1.808
			c-1.531-0.3-2.529-0.847-2.98-1.468c-0.221-0.257-0.181-0.43,0.105-0.522c0.026-0.005,0.053-0.01,0.08-0.015
			c0.17-0.052,0.325-0.068,0.469-0.052c0.037,0.038,0.079,0.063,0.125,0.076c-0.046,0.145-0.002,0.316,0.139,0.516
			c0.391,0.53,1.108,0.933,2.132,1.132c2.172,0.354,3.379-0.356,3.549-1.746c-0.883,0.27-1.88,0.321-2.928,0.129
			c-2.045-0.462-2.941-1.365-2.78-2.335c0.467-0.946,1.564-1.111,3.384-0.82C29.303,54.142,30.393,54.91,30.494,56.439z
			 M29.637,56.208c-0.065-1.098-0.893-1.714-2.439-2.091c-1.381-0.181-2.241-0.033-2.625,0.623
			c-0.094,0.728,0.614,1.372,2.178,1.718C28.288,56.656,29.262,56.506,29.637,56.208z"/>
		<path fill="#974578" d="M35.223,54.883c0.158,0.907,0.319,1.813,0.482,2.72c-0.034,0.082,0.016,0.228,0.153,0.435
			c0.093,0.24,0.146,0.384,0.156,0.435c-0.001,0.256-0.172,0.439-0.51,0.541c-0.499,0.075-0.771-0.06-0.813-0.385
			c-0.057-0.044-0.043-0.135,0.037-0.271c0.079-0.138,0.113-0.242,0.102-0.317c-0.157-1.099-0.311-2.197-0.461-3.296
			c-0.115,0.091-0.467,0.292-1.085,0.571c-0.041,0.029-0.083,0.045-0.125,0.049c-0.332,0.152-0.591,0.189-0.765,0.122
			c-0.436-0.108-0.584-0.233-0.461-0.361c-0.001-0.051,0.125-0.08,0.376-0.089c0.126-0.006,0.23-0.023,0.314-0.053
			c0.417-0.049,0.829-0.184,1.221-0.404c0.038-0.029,0.095-0.073,0.171-0.133c0.079-0.034,0.156-0.082,0.231-0.144
			c-0.007-0.051-0.015-0.112-0.025-0.188c-0.013-0.1-0.005-0.188,0.025-0.269c0.039-0.007,0.078-0.024,0.114-0.055
			c0.242-0.007,0.467,0.008,0.68,0.05c0.128,0.03,0.224,0.103,0.287,0.219c0.023,0.125-0.001,0.218-0.074,0.281
			C35.15,54.462,35.138,54.644,35.223,54.883z"/>
		<path fill="#974578" d="M44.563,52.604c0.104,0.159,0.208,0.319,0.313,0.478c0.721,1.286-0.033,2.816-2.596,4.003
			c-1.427,0.612-2.57,0.723-3.313,0.468c-0.334-0.087-0.406-0.25-0.228-0.485c0.019-0.019,0.038-0.038,0.057-0.056
			c0.107-0.138,0.224-0.237,0.352-0.305c0.052,0.011,0.102,0.008,0.146-0.007c0.049,0.144,0.188,0.26,0.423,0.342
			c0.638,0.216,1.466,0.143,2.419-0.268c1.983-0.927,2.534-2.185,1.864-3.42c-0.567,0.721-1.353,1.324-2.322,1.755
			c-1.948,0.767-3.218,0.526-3.651-0.359c-0.167-1.04,0.646-1.789,2.316-2.571C42.269,51.396,43.598,51.405,44.563,52.604z
			 M43.725,52.901c-0.688-0.863-1.719-0.901-3.213-0.343c-1.243,0.628-1.868,1.229-1.802,1.982c0.347,0.649,1.309,0.784,2.793,0.189
			C42.88,54.031,43.59,53.358,43.725,52.901z"/>
	</g>
</g>
<g id="XMLID_2_">
	<g>
		<path fill="#8B4374" d="M103.524,12.332c-0.136,0.377-0.041,0.209-0.215,0.431c-0.689,1.71-3.883,1.866-5.602,2.585
			c-4.176,1.75-6.754,2.282-7.972,7.11c0.431,0,0.862,0,1.293,0c1.185-0.916,7.043-2.969,8.834-3.232
			c0.314,0.457,0.612,0.539,0.862,1.077c0.422,0.668,0.265,3.555,0,4.74c-1.11,4.958-0.664,11.404-1.508,15.943
			c-0.345,0.121-0.517,0.173-1.077,0.216c-0.686-0.65-4.979-3.708-5.817-3.878c-0.509,1.388-2.28,0.738-3.448,0.431
			c-0.153-1.636-0.89-0.98-1.508-1.939c-0.162-0.23-0.129-0.204-0.216-0.646c0.677-0.301,2.064-0.793,2.37-1.508
			c-0.071,0-0.144,0-0.215,0c-0.532-0.95-1.422-0.45-1.724-1.724c1.109-0.694,2.409-1.812,3.24-3.219l0.535,0.222
			c-0.252,0.373-0.444,0.791-0.543,1.273c0.144,0,0.287,0,0.431,0c0.306-0.207,0.705-0.211,1.293-0.215
			c0.153,0.441,0.213,1.006,0.215,1.724c-0.5,0.347-0.506,0.314-0.646,1.077c0.638,0.139,0.795,0.128,1.078,0.646
			c-0.705,0.975-0.259,2.22,0,3.232c1.26,0.588,2.299,1.206,4.094,1.293c0.267-0.778,0.23-2.129,0.215-3.232
			c0.661-0.991,0.429-3.137,0.431-4.74c0.145-2.945,0.287-5.889,0.431-8.834c-0.271-0.14-0.446-0.235-0.646-0.431
			c-5.884,2.109-11.868,7.944-18.745,8.188c0-0.215,0-0.431,0-0.646c2.166-1.592,4.266-3.083,7.326-3.878
			c0.744-1.592,1.609-2.898,1.724-5.171c-2.499,0.325-4.906,1.622-7.11,2.585c-1.095,0.478-2.191,1.736-3.447,0.862
			c-0.19-0.278-0.192-0.532-0.216-1.078c0.381-0.289,0.614-0.661,0.862-1.077c0.071,0,0.145,0,0.216,0
			c0.205,0.73,0.084,0.67,0.862,0.862c2.215-1.626,7.832-2.57,9.48-4.524c0.67-0.898,0.299-2.62,0.646-3.878
			c0.222-0.806,0.866-1.89,1.077-2.585c0-2.801,0-5.602,0-8.403c0.145,0,0.287,0,0.431,0c1.075,1.306,3.187,2.025,4.094,3.447
			c1.433,2.243-0.793,8.084-1.508,9.911c0.575,0,1.148,0,1.724,0c1.099-0.938,3.424-1.036,4.094-2.37
			c-0.58-0.28-1.095-0.631-1.508-1.077c-0.215,0-0.431,0-0.646,0c0-0.287,0-0.575,0-0.862c0.071,0,0.145,0,0.216,0
			c0.864,0.56,3.449,0.243,4.74,0.215C102.389,11.776,102.961,12.021,103.524,12.332z"/>
		<path fill="#8B4374" d="M94.906,23.966c0.14,0.271,0.235,0.446,0.431,0.646c-0.685,1.902-2.894,2.713-3.981,4.329L90.82,28.72
			c0.5-0.843,0.832-1.791,0.854-2.814c-0.448,0.08-0.414,0.052-0.646,0.215c-0.53,0.17-0.972,0.448-1.357,0.787l-0.354-0.002
			c0.065-0.366,0.05-0.351,0.203-0.569C90.683,25.052,92.753,23.562,94.906,23.966z"/>
		<path fill="#8B4374" d="M89.316,26.905l0.354,0.002c-1.383,1.207-2.066,3.178-3.598,3.738c-0.782-0.702-1.663-0.782-2.585-1.292
			c0.17-0.453-0.006-0.39,0.215-0.646c0.645-0.343,1.655,0.162,2.37,0c1.252-0.282,1.829-1.513,3.232-1.724
			C89.308,26.955,89.313,26.929,89.316,26.905z"/>
	</g>
	<g>
	</g>
</g>
<path fill-rule="evenodd" clip-rule="evenodd" fill="#8B4374" d="M183.674,15.564c0.717,0.017,0.977,0.104,1.508,0.215
	c0.072,0.216,0.146,0.432,0.217,0.646c0.552,0.697,0.464,2.167,0.43,3.448c1.451-0.21,1.766-1.14,2.586-1.939
	c-0.023-3.838-1.953-6.58-2.586-9.696c2.603,0.206,2.817,1.958,4.525,2.801c1.038,0.512,2.458-0.004,3.879,0
	c0.69-1.052,2.572-4.091,3.661-4.525c0.397-0.267,1.23-0.234,1.94-0.215c0,0.144,0,0.287,0,0.432
	c0.776,1.227-0.731,2.14-1.078,3.016c0.145,0,0.287,0,0.432,0c1.147-2.225,5.622-2.592,8.187-1.508
	c0.24,0.534,0.364,0.696,0.433,1.508c-0.79,1.19-0.812,2.812-1.726,3.878c-0.177,0.208-0.69,0.189-0.861,0.431
	c-0.79,1.117-1.187,2.099-1.938,3.232c-0.216,0.072-0.431,0.144-0.646,0.215c-0.574,0.683-0.639,1.789-1.293,2.371
	c-1.142,1.013-2.862-0.008-4.524,0.646c-0.583,0.229-0.902,0.852-1.724,1.077c0-0.072,0-0.144,0-0.216
	c0.462-0.53,0.866-1.18,1.077-1.938c-1.321-0.064-1.11-0.462-1.938-0.862c-0.645,0.629-1.616,0.997-2.802,1.077
	c-0.195-0.233,0.017-0.018-0.215-0.215c0.072-0.215,0.143-0.431,0.215-0.647c0.956-0.308,1.646-1.19,1.939-2.154
	c-0.689-0.202-0.754-0.375-1.725-0.431c-0.412,0.969-0.924,2.409-1.938,2.8c-0.433,0.256-0.717,0.027-1.077,0.216
	c-1.242,0.972-1.308,2.238-2.155,3.663c-0.256,0.432-0.968,0.655-1.293,1.077c-0.142,0-0.287,0-0.43,0
	c-0.278-0.395-0.424-0.368-0.646-0.861C182.78,21.713,183.627,17.838,183.674,15.564z"/>
<path fill-rule="evenodd" clip-rule="evenodd" fill="#FFFFFF" d="M198.327,13.84c0.771,0.095,0.927,0.182,1.292,0.646
	c0.605,0.74,0.439,2.234,0.216,3.232c0.216,0,0.431,0,0.646,0c1.755-2.279,4.33-4.133,4.525-7.971
	c-0.624-0.216-1.653-0.229-2.586-0.216c-1.235,0.822-3.887,1.008-4.31,2.585C198.357,12.48,198.34,13.171,198.327,13.84z"/>
<path fill-rule="evenodd" clip-rule="evenodd" fill="#FFFFFF" d="M191,12.547c-0.13,0.373-0.191,0.68-0.216,1.293
	c0.072,0,0.145,0,0.216,0c0,0.072,0,0.144,0,0.216c0.681-0.324,1.031-0.524,1.292-1.293c0.072,0,0.145,0,0.216,0
	c0-0.072,0-0.144,0-0.216C192.005,12.547,191.503,12.547,191,12.547z"/>
<path fill-rule="evenodd" clip-rule="evenodd" fill="#8B4374" d="M118.606,30.646c0-0.217,0-0.432,0-0.647
	c2.203-1.43,4.497-3.599,7.757-3.232c-0.144,1.379-0.826,1.212-1.292,2.154c0.431,0,0.861,0,1.292,0
	c0.174,1.318,0.566,3.885,0,5.171c-0.266,0.604-0.811,0.785-1.078,1.509c2.053,0.166,3.906,1.039,6.033,0.646
	c0-0.791,0-1.58,0-2.369c-1.674-2.429-0.979-9.768-0.646-13.359c0.125-1.356,0.573-3.905-0.216-4.956c0,0.143,0,0.287,0,0.431
	c-0.398,0.643-0.094,1.829-0.216,2.585c-0.574,0.431-1.148,0.862-1.724,1.293c0-0.144,0-0.288,0-0.432
	c1.536-2.231-0.301-6.333,3.663-6.249c0.231-0.162,0.204-0.129,0.646-0.215c0.473,0.889,0.458,2.396,0.432,3.878
	c0.503,0.891-0.044,4.898-0.432,6.463c-1.146,4.638,0.247,8.85,0.216,13.79c-0.807,0.644-0.82,1.298-2.155,1.509
	c-2.486-1.81-11.563-3.084-12.281-6.033c0.661-0.271,1.219-0.373,1.507-1.077c0.163-0.23,0.13-0.203,0.216-0.647
	C119.888,30.708,119.323,30.647,118.606,30.646z"/>
<path fill-rule="evenodd" clip-rule="evenodd" fill="#FFFFFF" d="M194.664,15.348c0.116-0.743,0.241-0.672,0.431-1.292
	c-0.072,0-0.144,0-0.216,0c0-0.072,0-0.144,0-0.216c-0.737,0.35-1.23,0.682-1.508,1.508
	C193.801,15.348,194.233,15.348,194.664,15.348z"/>
<path fill-rule="evenodd" clip-rule="evenodd" fill="#8B4374" d="M158.898,23.536c1.227,0.017,1.751-0.208,2.585-0.43
	c-0.021-0.667-0.03-1.364,0.216-1.725c0.839-0.451,3.42-0.456,5.17-0.431c0,0.36,0,0.719,0,1.077
	c-2.574,1.598-6.407,2.323-9.265,3.664c-0.398,6.57-5.565,11.25-12.712,11.204c0-0.144,0-0.288,0-0.432
	c2.51-1.311,4.747-2.404,6.895-3.878c0.298-0.205,0.854-0.174,1.078-0.431c0.503-0.578,0.293-1.897,0.646-2.587
	c0.469-0.913,1.172-1.125,1.293-2.585c-0.073,0-0.144,0-0.217,0c-1.014,1.104-6.716,3.898-7.326,0.646c0.073,0,0.145,0,0.216,0
	c0-0.072,0-0.143,0-0.215c1.473,0.454,7.465-1.975,8.188-3.016c1.277-1.878,1.388-7.101,1.938-9.912
	c0.372-0.129,0.679-0.191,1.294-0.214c0.499,0.898,1.348,0.958,1.723,1.939C161.547,17.633,159.167,21.934,158.898,23.536z"/>
<path fill-rule="evenodd" clip-rule="evenodd" fill="none" d="M191,14.702c-0.12,0.346-0.172,0.518-0.216,1.077
	c0.145,0,0.287,0,0.432,0c0-0.072,0-0.144,0-0.215C191.471,15.044,191.412,15.091,191,14.702z"/>
<path fill-rule="evenodd" clip-rule="evenodd" fill="#FFFFFF" d="M197.68,17.502c0.287,0,0.574,0,0.861,0c0-0.431,0-0.861,0-1.292
	c-0.145,0-0.287,0-0.432,0c-0.208-0.055-0.081-0.169-0.216,0C197.688,16.516,197.684,16.916,197.68,17.502z"/>
<path fill-rule="evenodd" clip-rule="evenodd" fill="#8B4374" d="M123.346,22.458c3.395,0.063,3.239-1.311,5.171-2.371
	c0,0.144,0,0.288,0,0.432c-0.331,0.368-1.135,1.551-1.292,1.939c-0.263,0.647,0.078,1.478-0.216,1.939
	c-0.254,0.172-0.362,0.167-0.861,0.215c-0.474-0.383-2.188-1.361-2.37-1.293c-1.651,0.666-0.703,3.185-2.37,3.878
	c-0.23,0.162-0.203,0.13-0.646,0.216c0.134-1.038,0.404-1.512,0.432-2.801c-0.073,0-0.144,0-0.216,0
	c-0.517,0.838-1.068,1.415-2.37,1.508c-0.319-0.551-0.517-0.678-0.646-1.508c0.957-0.514,2.976-0.793,3.878-1.507
	c0.577-0.854,0.813-2.902,0.861-4.095c-3.07,0.458-3.605,2.739-7.972,2.801c-0.136-0.378-0.041-0.209-0.216-0.432
	c0-0.071,0-0.144,0-0.214c0.072,0,0.144,0,0.216,0c1.205-1.761,6.607-4.094,9.696-4.094c0.12,0.346,0.172,0.518,0.215,1.077
	C123.878,19.188,123.385,20.798,123.346,22.458z"/>
<path fill-rule="evenodd" clip-rule="evenodd" fill="none" d="M194.448,21.597c0.121,0.153,0.312,0.009,0.216,0.43
	c-0.072,0-0.143,0-0.216,0c-0.045,0.088-0.158,0.449-0.431,0.216C194.161,22.027,194.304,21.812,194.448,21.597z"/>
<path fill-rule="evenodd" clip-rule="evenodd" fill="#8B4374" d="M199.834,21.597c0.813,0.277,1.204,0.237,1.508,1.077
	c0.207,0.305,0.21,0.706,0.216,1.292c-1.599,1.637-4.705,4.302-7.325,4.741c0-0.144,0-0.288,0-0.432
	c1.468-0.951,3.737-3.184,4.309-4.956c-0.574,0-1.148,0-1.724,0c-1.614,1.297-3.678,1.568-5.602,2.586
	c-0.582,0.307-0.796,1.153-1.293,1.508c-2.229,1.592-4.78,2.919-7.111,4.309c-2.029,1.211-4.413,0.549-3.446-1.938
	c2.625-1.181,6.567-4.13,9.265-4.525c0.195,0.234-0.017,0.019,0.216,0.216c-0.221,0.173-0.059,0.077-0.432,0.215
	c-1.465,1.332-4.158,1.68-5.386,3.231c0.071,0,0.144,0,0.216,0c0.868-0.78,2.186-0.875,3.23-1.507
	c2.655-1.605,6.161-3.296,9.05-4.525C196.835,22.332,198.684,22.396,199.834,21.597z"/>
<path fill-rule="evenodd" clip-rule="evenodd" fill="none" d="M191,23.536c0.173,0.22,0.077,0.059,0.216,0.431
	c-0.073,0-0.145,0-0.216,0C191,23.823,191,23.679,191,23.536z"/>
<path fill-rule="evenodd" clip-rule="evenodd" fill="none" d="M190.138,23.966c-0.07,0.4,0.156,0.269-0.431,0.432
	c0-0.073,0-0.144,0-0.216C190.085,24.045,189.917,24.14,190.138,23.966z"/>
<path fill-rule="evenodd" clip-rule="evenodd" fill="#8B4374" d="M113.867,27.198c0.215,0,0.431,0,0.646,0c0,0.144,0,0.288,0,0.431
	c0.352,0.565,1.07,6.036,1.078,7.11c-0.883,0.555-1.71,1.101-3.017,1.292c-0.249-0.724-0.23-1.971-0.215-3.016
	C113.296,31.555,113.18,28.711,113.867,27.198z"/>
<path fill-rule="evenodd" clip-rule="evenodd" fill="#8B4374" d="M169.023,31.723c-0.071,0.359-0.143,0.719-0.215,1.077
	c-1.713,0.702-3.012,1.622-4.955,1.509c-1.383-2.013-4.524-3.42-5.387-5.817c0.345-0.12,0.518-0.173,1.077-0.216
	c0.894,0.886,4.688,3.502,6.033,3.663C166.29,31.49,168.089,31.811,169.023,31.723z"/>
<path fill-rule="evenodd" clip-rule="evenodd" fill="#FFFFFF" d="M121.838,29.567c0,0.36,0,0.719,0,1.079c0.144,0,0.288,0,0.431,0
	c0.426-0.535,0.974-0.629,1.292-1.293c0.054-0.208,0.169-0.082,0-0.215c0-0.073,0-0.144,0-0.216
	C122.775,29.132,122.699,29.405,121.838,29.567z"/>
<path fill-rule="evenodd" clip-rule="evenodd" fill="#8B4374" d="M79.177,29.567c0.144,0,0.288,0,0.431,0
	c-0.153,1.935-1.294,2.958-1.723,4.525c-0.562,2.049,0.428,3.642,0.43,5.602c-0.484,0.128-0.572,0.162-0.861,0.433
	c-0.378-0.137-0.209-0.043-0.431-0.217c-0.659-0.438-2.59-2.575-1.508-3.879c0.324-0.39,1.061-0.331,1.292-0.86
	c0.144-0.935,0.287-1.868,0.431-2.802C77.657,31.254,78.559,30.473,79.177,29.567z"/>
<path fill-rule="evenodd" clip-rule="evenodd" fill="#8B4374" d="M186.475,40.557c2.361-0.004,4.762,0.281,6.68,0.216
	c0.274-0.363,0.589-0.499,0.862-0.862c1.027-1.236,0.519-5.706-0.646-6.679c0-0.072,0-0.144,0-0.216
	c-2.85,1.005-5.045,3.077-7.542,3.879c-0.944,0.303-2.726-0.162-2.8-0.217c-0.621-0.395-0.777-0.521-0.862-1.507
	c4.038-2.155,12.249-6.517,17.884-5.171c0.141,0.404,0.205,0.843,0.215,1.508c-0.586,0.367-0.539,0.546-1.509,0.646
	c-0.896,0.497-2.487-0.295-3.447,0.431c-0.173,0.254-0.167,0.362-0.215,0.861c1.367,1.506,0.906,6.426,0.431,8.403
	C193.634,42.873,187.106,42.941,186.475,40.557z"/>
<path fill-rule="evenodd" clip-rule="evenodd" fill="#FFFFFF" d="M122.485,31.938c-0.349,0.757-0.599,1.228-0.646,2.37
	c0.215,0.072,0.431,0.144,0.646,0.216c0.254,0.173,0.362,0.166,0.861,0.215c0.197-0.233-0.016-0.019,0.216-0.215
	C123.738,33.146,124.155,32.068,122.485,31.938z"/>
<path fill="#666666" stroke="#666666" stroke-width="0.25" d="M230.231,20.093c0.57,0.733,1.199,1.59,1.884,2.566h8.39
	c0.57,0.367,0.57,0.733,0,1.1h-4.451c-0.686,1.345-1.313,2.445-1.884,3.3h3.938c1.255,0,1.825,0.612,1.712,1.833v10.633
	c0.113,1.467-0.514,2.139-1.884,2.017c-0.342,0.122-1.085,0-2.226-0.367c-0.457-0.489-0.4-0.916,0.171-1.283
	c2.169,0.733,3.139,0.55,2.911-0.55V29.26c0-0.733-0.343-1.1-1.027-1.1h-14.04c-0.686,0-1.027,0.367-1.027,1.1v11.55
	c-0.343,0.61-0.686,0.61-1.027,0V28.893c0-1.222,0.569-1.833,1.712-1.833h4.109c-0.457-0.855-1.143-1.955-2.055-3.3h-4.452
	c-0.457-0.367-0.457-0.733,0-1.1h9.76c-0.457-0.733-0.913-1.343-1.369-1.833C229.26,20.093,229.546,19.85,230.231,20.093z
	 M228.176,28.893c0.686-0.122,0.913,0.183,0.686,0.917c-1.37,1.223-3.082,2.2-5.137,2.934c-0.571-0.122-0.629-0.488-0.172-1.1
	C225.379,31.033,226.92,30.116,228.176,28.893z M227.149,32.56h7.191c1.255,0,1.826,0.611,1.713,1.833v2.934
	c0.113,1.467-0.458,2.077-1.713,1.833h-7.191c-1.027,0.122-1.599-0.489-1.712-1.833v-2.934
	C225.437,33.171,226.007,32.56,227.149,32.56z M233.999,33.659h-6.507c-0.685,0-1.027,0.367-1.027,1.101v2.2
	c0,0.856,0.343,1.222,1.027,1.1h6.507c0.798,0.122,1.141-0.243,1.027-1.1v-2.2C235.139,34.026,234.796,33.659,233.999,33.659z
	 M226.635,23.76c0.686,0.979,1.37,2.078,2.055,3.3h4.281c0.685-0.977,1.312-2.077,1.883-3.3H226.635z M232.799,29.81
	c-0.342-0.61-0.171-0.977,0.514-1.1c1.826,1.223,3.367,2.323,4.623,3.3c0.114,0.611-0.114,0.917-0.685,0.917
	C235.31,31.459,233.827,30.421,232.799,29.81z"/>
<path fill="#666666" stroke="#666666" stroke-width="0.25" d="M246.156,27.977h9.76c1.712,0,2.396,0.49,2.055,1.466
	c-0.343,0.49-1.713,1.284-4.109,2.383c-0.8,0.245-0.914,0.611-0.343,1.101c0.228,0.244,0.456,0.55,0.685,0.916h8.219
	c0.456,0.367,0.456,0.733,0,1.101h-7.705c1.37,4.276,0.456,6.538-2.739,6.783c-1.599,0-2.969-0.49-4.109-1.467
	c-0.229-0.49-0.058-0.795,0.514-0.917c1.141,0.977,2.34,1.405,3.596,1.283c2.397-0.245,2.911-2.14,1.541-5.683h-10.103
	c-0.457-0.367-0.457-0.733,0-1.101h9.589c-0.229-0.243-0.514-0.55-0.856-0.916c-0.457-0.733-0.229-1.344,0.686-1.833
	c3.195-1.222,4.165-1.894,2.91-2.017h-9.588C245.698,28.71,245.698,28.343,246.156,27.977z M250.607,20.093
	c0-0.61,0.285-0.855,0.856-0.733c1.141,1.833,1.997,3.483,2.568,4.95h3.082c0.799-0.977,1.541-2.443,2.226-4.4
	c0.456-0.367,0.799-0.243,1.027,0.367c-0.342,0.979-0.971,2.323-1.883,4.033h2.226c1.826,0,2.055,1.895,0.685,5.684
	c-0.457,0.367-0.8,0.245-1.027-0.367c1.142-2.81,1.199-4.217,0.172-4.217h-15.41c-0.686,0-1.027,0.367-1.027,1.1v2.933
	c-0.343,0.49-0.686,0.49-1.027,0v-3.3c0-1.222,0.569-1.833,1.712-1.833h2.226c-0.457-0.855-1.142-1.955-2.055-3.3
	c0-0.488,0.228-0.733,0.686-0.733c1.141,1.467,1.997,2.812,2.568,4.033h4.623C252.262,22.966,251.52,21.56,250.607,20.093z"/>
<path fill="#666666" stroke="#666666" stroke-width="0.25" d="M266.531,20.46h2.226c1.37,0.123,1.884,0.733,1.541,1.833
	c-0.343,1.223-0.856,2.567-1.541,4.034c-0.343,0.49-0.4,0.917-0.171,1.283c1.255,1.711,1.825,3.728,1.712,6.049
	c-0.115,1.957-1.37,2.567-3.767,1.834c-0.343-0.61-0.229-0.977,0.342-1.101c1.598,0.612,2.397,0.245,2.397-1.1
	c0.228-1.71-0.343-3.605-1.712-5.683c-0.229-0.244-0.115-0.855,0.342-1.833c0.57-1.343,0.97-2.383,1.199-3.117
	c0.228-0.61,0-0.977-0.686-1.1h-1.541c-0.685,0-1.027,0.366-1.027,1.1v18.333c-0.342,0.488-0.685,0.488-1.027,0v-18.7
	C264.818,21.071,265.388,20.46,266.531,20.46z M270.982,30.36h12.671c0.456,0.367,0.456,0.733,0,1.1h-4.109v6.784
	c0,0.977,0.398,1.405,1.198,1.283h1.199c1.027,0.243,1.483-0.979,1.369-3.667c0.343-0.61,0.686-0.61,1.027,0
	c0.228,3.422-0.571,5.011-2.396,4.767h-1.37c-1.37,0.122-2.055-0.611-2.055-2.2v-6.966h-3.425c0.343,4.767-1.541,8.067-5.65,9.9
	c-0.571-0.123-0.685-0.489-0.342-1.1c3.538-1.712,5.192-4.644,4.965-8.8h-3.082C270.411,31.093,270.411,30.727,270.982,30.36z
	 M276.804,19.543c0.569,1.224,0.97,2.14,1.198,2.75h4.966c1.597,0,1.825,1.773,0.685,5.317c-0.571,0.49-0.914,0.367-1.027-0.367
	c0.912-2.567,0.856-3.85-0.171-3.85h-9.76c-0.686,0-1.027,0.367-1.027,1.1v2.75c-0.343,0.733-0.686,0.733-1.027,0v-3.117
	c0.113-1.222,0.685-1.833,1.712-1.833h4.452c-0.229-0.61-0.571-1.343-1.027-2.2C275.777,19.483,276.119,19.3,276.804,19.543z
	 M272.695,26.327h8.903c0.456,0.366,0.456,0.733,0,1.1h-8.903C272.237,27.06,272.237,26.693,272.695,26.327z"/>
<path fill="#666666" stroke="#666666" stroke-width="0.1" d="M73.387,60.112v-9.503h2.695c0.806,0,1.45,0.199,1.931,0.598
	c0.482,0.399,0.723,0.928,0.723,1.586c0,0.524-0.144,0.986-0.43,1.387c-0.286,0.401-0.68,0.686-1.182,0.853v0.025
	c0.624,0.073,1.123,0.317,1.496,0.732s0.56,0.942,0.56,1.58c0,0.818-0.284,1.479-0.85,1.984c-0.567,0.505-1.292,0.758-2.177,0.758
	H73.387z M74.572,51.683v2.976h1.078c0.573,0,1.022-0.144,1.348-0.433c0.326-0.288,0.489-0.688,0.489-1.199
	c0-0.896-0.577-1.344-1.73-1.344H74.572z M74.572,55.726v3.313h1.422c0.62,0,1.099-0.148,1.437-0.445
	c0.338-0.296,0.507-0.708,0.507-1.236c0-1.088-0.713-1.632-2.139-1.632H74.572z"/>
<path fill="#666666" stroke="#666666" stroke-width="0.1" d="M86.261,60.112h-1.167v-1.067H85.07
	c-0.438,0.818-1.112,1.227-2.02,1.227c-1.552,0-2.329-0.961-2.329-2.883v-4.062h1.149v3.884c0,1.378,0.51,2.067,1.528,2.067
	c0.506,0,0.915-0.193,1.227-0.58s0.468-0.874,0.468-1.463v-3.908h1.167V60.112z"/>
<path fill="#666666" stroke="#666666" stroke-width="0.1" d="M87.961,58.646c0.584,0.438,1.214,0.656,1.89,0.656
	c0.905,0,1.357-0.307,1.357-0.921c0-0.262-0.099-0.477-0.296-0.646c-0.197-0.17-0.598-0.371-1.203-0.604
	c-0.727-0.303-1.199-0.603-1.416-0.898c-0.217-0.297-0.326-0.656-0.326-1.077c0-0.602,0.246-1.083,0.738-1.444
	c0.492-0.362,1.097-0.543,1.815-0.543c0.557,0,1.075,0.1,1.552,0.3v1.16c-0.49-0.327-1.044-0.491-1.665-0.491
	c-0.371,0-0.673,0.084-0.906,0.252c-0.233,0.168-0.35,0.389-0.35,0.662c0,0.271,0.084,0.48,0.251,0.632
	c0.168,0.151,0.54,0.346,1.117,0.583c0.731,0.282,1.225,0.575,1.481,0.877c0.256,0.303,0.385,0.678,0.385,1.123
	c0,0.622-0.246,1.111-0.737,1.47c-0.492,0.357-1.129,0.536-1.911,0.536c-0.679,0-1.272-0.133-1.777-0.398V58.646z"/>
<path fill="#666666" stroke="#666666" stroke-width="0.1" d="M93.802,50.935c0-0.213,0.07-0.392,0.21-0.537
	c0.14-0.145,0.313-0.218,0.518-0.218c0.209,0,0.386,0.072,0.53,0.215c0.145,0.144,0.216,0.323,0.216,0.54
	c0,0.213-0.072,0.39-0.216,0.53c-0.144,0.142-0.321,0.212-0.53,0.212c-0.209,0-0.383-0.07-0.521-0.212
	C93.872,51.324,93.802,51.147,93.802,50.935z M93.938,60.112v-6.785H95.1v6.785H93.938z"/>
<path fill="#666666" stroke="#666666" stroke-width="0.1" d="M102.712,60.112h-1.155v-3.858c0-1.396-0.492-2.093-1.475-2.093
	c-0.51,0-0.928,0.196-1.256,0.589c-0.328,0.393-0.492,0.89-0.492,1.491v3.871h-1.161v-6.785h1.161v1.123h0.024
	c0.494-0.855,1.21-1.282,2.15-1.282c0.719,0,1.266,0.238,1.641,0.714c0.375,0.477,0.563,1.171,0.563,2.083V60.112z"/>
<path fill="#666666" stroke="#666666" stroke-width="0.1" d="M109.987,57.026h-4.585c0.02,0.724,0.211,1.283,0.575,1.678
	s0.871,0.592,1.522,0.592c0.735,0,1.408-0.243,2.021-0.729v1.073c-0.577,0.422-1.341,0.632-2.293,0.632
	c-0.948,0-1.688-0.311-2.219-0.933c-0.531-0.621-0.797-1.484-0.797-2.589c0-1.038,0.292-1.896,0.874-2.57s1.306-1.012,2.171-1.012
	c0.857,0,1.526,0.285,2.008,0.855s0.723,1.369,0.723,2.396V57.026z M108.826,56.063c-0.004-0.613-0.144-1.088-0.42-1.424
	c-0.277-0.335-0.666-0.503-1.167-0.503c-0.462,0-0.862,0.178-1.2,0.534c-0.337,0.355-0.55,0.819-0.637,1.393H108.826z"/>
<path fill="#666666" stroke="#666666" stroke-width="0.1" d="M111.167,58.646c0.584,0.438,1.214,0.656,1.89,0.656
	c0.905,0,1.357-0.307,1.357-0.921c0-0.262-0.099-0.477-0.296-0.646c-0.197-0.17-0.598-0.371-1.203-0.604
	c-0.727-0.303-1.199-0.603-1.416-0.898c-0.217-0.297-0.326-0.656-0.326-1.077c0-0.602,0.246-1.083,0.738-1.444
	c0.492-0.362,1.097-0.543,1.815-0.543c0.557,0,1.075,0.1,1.552,0.3v1.16c-0.49-0.327-1.044-0.491-1.665-0.491
	c-0.371,0-0.673,0.084-0.906,0.252c-0.233,0.168-0.35,0.389-0.35,0.662c0,0.271,0.084,0.48,0.251,0.632
	c0.168,0.151,0.54,0.346,1.117,0.583c0.731,0.282,1.225,0.575,1.481,0.877c0.256,0.303,0.385,0.678,0.385,1.123
	c0,0.622-0.246,1.111-0.737,1.47c-0.492,0.357-1.129,0.536-1.911,0.536c-0.679,0-1.272-0.133-1.777-0.398V58.646z"/>
<path fill="#666666" stroke="#666666" stroke-width="0.1" d="M116.783,58.646c0.584,0.438,1.214,0.656,1.89,0.656
	c0.905,0,1.357-0.307,1.357-0.921c0-0.262-0.099-0.477-0.296-0.646c-0.197-0.17-0.598-0.371-1.203-0.604
	c-0.727-0.303-1.199-0.603-1.416-0.898c-0.217-0.297-0.326-0.656-0.326-1.077c0-0.602,0.246-1.083,0.738-1.444
	c0.492-0.362,1.097-0.543,1.815-0.543c0.557,0,1.075,0.1,1.552,0.3v1.16c-0.49-0.327-1.044-0.491-1.665-0.491
	c-0.371,0-0.673,0.084-0.906,0.252c-0.233,0.168-0.35,0.389-0.35,0.662c0,0.271,0.084,0.48,0.251,0.632
	c0.168,0.151,0.54,0.346,1.117,0.583c0.731,0.282,1.225,0.575,1.481,0.877c0.256,0.303,0.385,0.678,0.385,1.123
	c0,0.622-0.246,1.111-0.737,1.47c-0.492,0.357-1.129,0.536-1.911,0.536c-0.679,0-1.272-0.133-1.777-0.398V58.646z"/>
<path fill="#666666" stroke="#666666" stroke-width="0.1" d="M126.078,58.327c0.28,0.254,0.656,0.462,1.125,0.626
	c0.47,0.163,0.917,0.245,1.339,0.245c1.288,0,1.932-0.475,1.932-1.423c0-0.267-0.069-0.506-0.208-0.719
	c-0.138-0.212-0.328-0.4-0.569-0.563c-0.241-0.164-0.693-0.415-1.356-0.755c-0.92-0.475-1.527-0.915-1.819-1.322
	c-0.292-0.407-0.438-0.872-0.438-1.396c0-0.789,0.306-1.415,0.918-1.877c0.612-0.463,1.384-0.693,2.316-0.693
	c0.912,0,1.582,0.114,2.008,0.343v1.338c-0.553-0.396-1.252-0.595-2.097-0.595c-0.561,0-1.018,0.121-1.372,0.364
	c-0.354,0.244-0.53,0.582-0.53,1.016c0,0.385,0.123,0.697,0.367,0.938c0.245,0.241,0.776,0.57,1.594,0.988
	c0.9,0.445,1.53,0.892,1.89,1.337c0.359,0.446,0.539,0.947,0.539,1.503c0,0.835-0.292,1.475-0.877,1.921
	c-0.584,0.445-1.396,0.668-2.435,0.668c-0.363,0-0.787-0.052-1.271-0.156s-0.836-0.234-1.058-0.39V58.327z"/>
<path fill="#666666" stroke="#666666" stroke-width="0.1" d="M137.885,59.806c-0.501,0.311-1.106,0.466-1.813,0.466
	c-0.948,0-1.71-0.314-2.287-0.944s-0.865-1.446-0.865-2.448c0-1.112,0.311-2.009,0.933-2.689c0.622-0.682,1.455-1.021,2.497-1.021
	c0.601,0,1.114,0.11,1.541,0.331v1.19c-0.462-0.353-0.976-0.528-1.541-0.528c-0.663,0-1.204,0.238-1.62,0.715
	s-0.625,1.111-0.625,1.905c0,0.781,0.196,1.393,0.589,1.834s0.923,0.663,1.591,0.663c0.565,0,1.098-0.192,1.6-0.577V59.806z"/>
<path fill="#666666" stroke="#666666" stroke-width="0.1" d="M144.977,60.112h-1.155v-3.901c0-1.366-0.49-2.05-1.469-2.05
	c-0.502,0-0.918,0.199-1.25,0.599c-0.332,0.398-0.498,0.9-0.498,1.506v3.847h-1.161V50.069h1.161v4.374h0.024
	c0.501-0.851,1.214-1.275,2.139-1.275c1.473,0,2.21,0.922,2.21,2.767V60.112z"/>
<path fill="#666666" stroke="#666666" stroke-width="0.1" d="M146.475,56.793c0-1.12,0.302-2.005,0.907-2.653
	c0.604-0.647,1.424-0.972,2.458-0.972c0.983,0,1.755,0.312,2.313,0.936c0.559,0.623,0.838,1.485,0.838,2.586
	c0,1.071-0.298,1.937-0.895,2.595c-0.596,0.658-1.396,0.987-2.399,0.987c-0.979,0-1.762-0.318-2.346-0.957
	C146.768,58.677,146.475,57.836,146.475,56.793z M147.66,56.757c0,0.781,0.19,1.396,0.572,1.847
	c0.381,0.449,0.894,0.675,1.537,0.675c0.664,0,1.169-0.22,1.517-0.66c0.348-0.439,0.521-1.07,0.521-1.893
	c0-0.826-0.174-1.46-0.521-1.901c-0.348-0.442-0.853-0.663-1.517-0.663c-0.651,0-1.166,0.231-1.543,0.693
	C147.849,55.317,147.66,55.951,147.66,56.757z"/>
<path fill="#666666" stroke="#666666" stroke-width="0.1" d="M154.189,56.793c0-1.12,0.302-2.005,0.906-2.653
	c0.604-0.647,1.424-0.972,2.458-0.972c0.984,0,1.755,0.312,2.313,0.936c0.56,0.623,0.839,1.485,0.839,2.586
	c0,1.071-0.299,1.937-0.895,2.595c-0.597,0.658-1.396,0.987-2.399,0.987c-0.979,0-1.762-0.318-2.346-0.957
	C154.481,58.677,154.189,57.836,154.189,56.793z M155.374,56.757c0,0.781,0.19,1.396,0.571,1.847
	c0.382,0.449,0.894,0.675,1.538,0.675c0.663,0,1.169-0.22,1.517-0.66c0.348-0.439,0.521-1.07,0.521-1.893
	c0-0.826-0.174-1.46-0.521-1.901c-0.348-0.442-0.854-0.663-1.517-0.663c-0.652,0-1.166,0.231-1.544,0.693
	C155.562,55.317,155.374,55.951,155.374,56.757z"/>
<path fill="#666666" stroke="#666666" stroke-width="0.1" d="M162.335,60.112V50.069h1.161v10.043H162.335z"/>
<path fill="#666666" stroke="#666666" stroke-width="0.1" d="M168.721,56.793c0-1.12,0.302-2.005,0.906-2.653
	c0.604-0.647,1.424-0.972,2.458-0.972c0.984,0,1.755,0.312,2.313,0.936c0.56,0.623,0.839,1.485,0.839,2.586
	c0,1.071-0.299,1.937-0.895,2.595c-0.597,0.658-1.396,0.987-2.399,0.987c-0.979,0-1.762-0.318-2.346-0.957
	C169.013,58.677,168.721,57.836,168.721,56.793z M169.906,56.757c0,0.781,0.19,1.396,0.571,1.847
	c0.382,0.449,0.894,0.675,1.538,0.675c0.663,0,1.169-0.22,1.517-0.66c0.348-0.439,0.521-1.07,0.521-1.893
	c0-0.826-0.174-1.46-0.521-1.901c-0.348-0.442-0.854-0.663-1.517-0.663c-0.652,0-1.166,0.231-1.544,0.693
	C170.094,55.317,169.906,55.951,169.906,56.757z"/>
<path fill="#666666" stroke="#666666" stroke-width="0.1" d="M179.995,51.094c-0.217-0.118-0.452-0.178-0.705-0.178
	c-0.727,0-1.09,0.467-1.09,1.398v1.013h1.534v0.994H178.2v5.791h-1.149v-5.791h-1.119v-0.994h1.119V52.26
	c0-0.729,0.203-1.3,0.607-1.715c0.405-0.415,0.919-0.623,1.543-0.623c0.332,0,0.597,0.039,0.794,0.117V51.094z"/>
<path fill="#666666" stroke="#666666" stroke-width="0.1" d="M192.075,60.112h-1.403l-4.615-7.393
	c-0.131-0.209-0.235-0.415-0.314-0.619h-0.035c0.031,0.212,0.047,0.656,0.047,1.331v6.681h-1.173v-9.503h1.487l4.49,7.264
	c0.214,0.344,0.34,0.563,0.38,0.656h0.023c-0.04-0.27-0.06-0.731-0.06-1.387v-6.533h1.173V60.112z"/>
<path fill="#666666" stroke="#666666" stroke-width="0.1" d="M194.45,53.8c0.652-0.422,1.404-0.632,2.258-0.632
	c1.579,0,2.369,0.858,2.369,2.576v4.368h-1.149v-1.049h-0.029c-0.454,0.806-1.124,1.208-2.008,1.208
	c-0.637,0-1.142-0.178-1.517-0.533c-0.376-0.356-0.563-0.837-0.563-1.442c0-1.268,0.725-2.006,2.175-2.214l1.942-0.282
	c0-1.108-0.442-1.663-1.326-1.663c-0.786,0-1.503,0.274-2.151,0.822V53.8z M196.393,56.922c-0.537,0.074-0.907,0.213-1.11,0.417
	c-0.204,0.205-0.306,0.491-0.306,0.859c0,0.323,0.11,0.587,0.332,0.791c0.221,0.205,0.514,0.307,0.877,0.307
	c0.505,0,0.922-0.184,1.25-0.552s0.491-0.83,0.491-1.387v-0.65L196.393,56.922z"/>
<path fill="#666666" stroke="#666666" stroke-width="0.1" d="M206.542,60.112h-1.155v-3.858c0-1.396-0.492-2.093-1.476-2.093
	c-0.509,0-0.928,0.196-1.256,0.589s-0.491,0.89-0.491,1.491v3.871h-1.161v-6.785h1.161v1.123h0.023
	c0.493-0.855,1.21-1.282,2.15-1.282c0.719,0,1.266,0.238,1.642,0.714c0.375,0.477,0.563,1.171,0.563,2.083V60.112z"/>
<path fill="#666666" stroke="#666666" stroke-width="0.1" d="M214.048,60.112h-1.582l-2.802-3.27h-0.023v3.27h-1.161V50.069h1.161
	v6.368h0.023l2.66-3.11h1.493l-2.963,3.264L214.048,60.112z"/>
<path fill="#666666" stroke="#666666" stroke-width="0.1" d="M215.239,53.8c0.652-0.422,1.404-0.632,2.258-0.632
	c1.579,0,2.369,0.858,2.369,2.576v4.368h-1.149v-1.049h-0.029c-0.454,0.806-1.124,1.208-2.008,1.208
	c-0.637,0-1.142-0.178-1.517-0.533c-0.376-0.356-0.563-0.837-0.563-1.442c0-1.268,0.725-2.006,2.175-2.214l1.942-0.282
	c0-1.108-0.442-1.663-1.326-1.663c-0.786,0-1.503,0.274-2.151,0.822V53.8z M217.182,56.922c-0.537,0.074-0.907,0.213-1.11,0.417
	c-0.204,0.205-0.306,0.491-0.306,0.859c0,0.323,0.11,0.587,0.332,0.791c0.221,0.205,0.514,0.307,0.877,0.307
	c0.505,0,0.922-0.184,1.25-0.552s0.491-0.83,0.491-1.387v-0.65L217.182,56.922z"/>
<path fill="#666666" stroke="#666666" stroke-width="0.1" d="M221.649,50.935c0-0.213,0.07-0.392,0.21-0.537
	c0.141-0.145,0.313-0.218,0.519-0.218c0.21,0,0.386,0.072,0.53,0.215c0.145,0.144,0.217,0.323,0.217,0.54
	c0,0.213-0.072,0.39-0.217,0.53c-0.145,0.142-0.32,0.212-0.53,0.212c-0.209,0-0.383-0.07-0.521-0.212
	C221.718,51.324,221.649,51.147,221.649,50.935z M221.786,60.112v-6.785h1.161v6.785H221.786z"/>
<path fill="#666666" stroke="#666666" stroke-width="0.1" d="M235.559,56.241c0,2.688-1.178,4.03-3.531,4.03
	c-2.255,0-3.383-1.296-3.383-3.89v-5.772h1.185v5.718c0,1.901,0.771,2.853,2.311,2.853c1.489,0,2.233-0.92,2.233-2.761v-5.81h1.186
	V56.241z"/>
<path fill="#666666" stroke="#666666" stroke-width="0.1" d="M243.208,60.112h-1.155v-3.858c0-1.396-0.492-2.093-1.476-2.093
	c-0.509,0-0.928,0.196-1.256,0.589s-0.491,0.89-0.491,1.491v3.871h-1.161v-6.785h1.161v1.123h0.023
	c0.493-0.855,1.21-1.282,2.15-1.282c0.719,0,1.266,0.238,1.642,0.714c0.375,0.477,0.563,1.171,0.563,2.083V60.112z"/>
<path fill="#666666" stroke="#666666" stroke-width="0.1" d="M245.002,50.935c0-0.213,0.07-0.392,0.21-0.537
	c0.141-0.145,0.313-0.218,0.519-0.218c0.21,0,0.386,0.072,0.53,0.215c0.145,0.144,0.217,0.323,0.217,0.54
	c0,0.213-0.072,0.39-0.217,0.53c-0.145,0.142-0.32,0.212-0.53,0.212c-0.209,0-0.383-0.07-0.521-0.212
	C245.072,51.324,245.002,51.147,245.002,50.935z M245.139,60.112v-6.785h1.161v6.785H245.139z"/>
<path fill="#666666" stroke="#666666" stroke-width="0.1" d="M253.652,53.327l-2.595,6.785h-1.173l-2.465-6.785h1.268l1.6,4.847
	c0.131,0.389,0.207,0.714,0.231,0.976h0.029c0.039-0.344,0.108-0.661,0.207-0.951l1.677-4.871H253.652z"/>
<path fill="#666666" stroke="#666666" stroke-width="0.1" d="M260.003,57.026h-4.586c0.02,0.724,0.211,1.283,0.575,1.678
	c0.363,0.395,0.87,0.592,1.522,0.592c0.734,0,1.407-0.243,2.02-0.729v1.073c-0.576,0.422-1.341,0.632-2.292,0.632
	c-0.948,0-1.688-0.311-2.219-0.933c-0.531-0.621-0.797-1.484-0.797-2.589c0-1.038,0.291-1.896,0.874-2.57
	c0.582-0.675,1.306-1.012,2.171-1.012c0.856,0,1.526,0.285,2.008,0.855c0.482,0.57,0.724,1.369,0.724,2.396V57.026z M258.842,56.063
	c-0.005-0.613-0.145-1.088-0.421-1.424c-0.276-0.335-0.666-0.503-1.167-0.503c-0.462,0-0.862,0.178-1.2,0.534
	c-0.338,0.355-0.55,0.819-0.637,1.393H258.842z"/>
<path fill="#666666" stroke="#666666" stroke-width="0.1" d="M265.062,54.518c-0.193-0.144-0.46-0.215-0.8-0.215
	c-0.45,0-0.821,0.218-1.113,0.653c-0.293,0.436-0.438,1.009-0.438,1.721v3.436h-1.161v-6.785h1.161v1.38h0.023
	c0.332-0.997,0.904-1.496,1.718-1.496c0.265,0,0.468,0.03,0.61,0.092V54.518z"/>
<path fill="#666666" stroke="#666666" stroke-width="0.1" d="M265.904,58.646c0.584,0.438,1.214,0.656,1.89,0.656
	c0.904,0,1.356-0.307,1.356-0.921c0-0.262-0.099-0.477-0.296-0.646c-0.198-0.17-0.599-0.371-1.203-0.604
	c-0.727-0.303-1.198-0.603-1.416-0.898c-0.217-0.297-0.325-0.656-0.325-1.077c0-0.602,0.245-1.083,0.737-1.444
	c0.491-0.362,1.097-0.543,1.815-0.543c0.557,0,1.074,0.1,1.553,0.3v1.16c-0.49-0.327-1.045-0.491-1.665-0.491
	c-0.371,0-0.674,0.084-0.906,0.252c-0.233,0.168-0.35,0.389-0.35,0.662c0,0.271,0.084,0.48,0.252,0.632s0.54,0.346,1.116,0.583
	c0.73,0.282,1.225,0.575,1.481,0.877c0.257,0.303,0.385,0.678,0.385,1.123c0,0.622-0.246,1.111-0.737,1.47
	c-0.492,0.357-1.129,0.536-1.911,0.536c-0.679,0-1.271-0.133-1.776-0.398V58.646z"/>
<path fill="#666666" stroke="#666666" stroke-width="0.1" d="M271.745,50.935c0-0.213,0.07-0.392,0.21-0.537
	c0.141-0.145,0.313-0.218,0.519-0.218c0.21,0,0.386,0.072,0.53,0.215c0.145,0.144,0.217,0.323,0.217,0.54
	c0,0.213-0.072,0.39-0.217,0.53c-0.145,0.142-0.32,0.212-0.53,0.212c-0.209,0-0.383-0.07-0.521-0.212
	C271.814,51.324,271.745,51.147,271.745,50.935z M271.881,60.112v-6.785h1.161v6.785H271.881z"/>
<path fill="#666666" stroke="#666666" stroke-width="0.1" d="M278.261,60.045c-0.253,0.143-0.595,0.215-1.025,0.215
	c-1.173,0-1.759-0.673-1.759-2.019v-3.92h-1.126v-0.994h1.126v-1.632l1.155-0.381v2.013h1.629v0.994h-1.629v3.705
	c0,0.446,0.072,0.765,0.219,0.957s0.389,0.288,0.729,0.288c0.261,0,0.488-0.075,0.682-0.227V60.045z"/>
<path fill="#666666" stroke="#666666" stroke-width="0.1" d="M284.967,53.327l-2.974,7.81c-0.553,1.448-1.333,2.172-2.34,2.172
	c-0.288,0-0.535-0.033-0.74-0.099v-1.055c0.225,0.09,0.441,0.135,0.651,0.135c0.525,0,0.918-0.319,1.179-0.957l0.504-1.233
	l-2.571-6.772h1.285l1.713,5.098l0.142,0.559h0.029c0.024-0.127,0.071-0.309,0.143-0.546l1.789-5.11H284.967z"/>
</svg>
