<svg width="470" height="68" xmlns="http://www.w3.org/2000/svg">

 <g>
  <title>background</title>
  <rect fill="none" id="canvas_background" height="70" width="472" y="-1" x="-1"/>
 </g>
 <g>
  <title>Layer 1</title>
  <polygon id="svg_1" points="32.521 64.039 34.138 63.997 35.733 63.869 37.305 63.666 38.854 63.396 40.377 63.036 41.871 62.614 43.336 62.114 44.767 61.55 46.166 60.917 47.521 60.225 48.84 59.457 50.121 58.638 51.354 57.76 52.543 56.823 53.694 55.831 54.79 54.783 55.829 53.688 56.822 52.544 57.76 51.355 58.643 50.12 59.462 48.842 60.223 47.521 60.92 46.159 61.55 44.766 62.121 43.337 62.615 41.871 63.043 40.378 63.394 38.853 63.673 37.307 63.87 35.734 63.997 34.139 64.037 32.515 63.997 30.898 63.87 29.304 63.673 27.731 63.394 26.176 63.043 24.658 62.615 23.166 62.121 21.7 61.55 20.27 60.92 18.871 60.223 17.517 59.462 16.195 58.643 14.916 57.76 13.679 56.822 12.484 55.829 11.342 54.79 10.247 53.694 9.208 52.543 8.214 51.354 7.276 50.121 6.394 48.84 5.574 47.521 4.813 46.166 4.117 44.767 3.485 43.336 2.916 41.871 2.423 40.377 1.993 38.854 1.643 37.305 1.364 35.733 1.167 34.138 1.04 32.521 1 30.899 1.04 29.304 1.167 27.732 1.364 26.183 1.643 24.658 1.993 23.165 2.423 21.699 2.916 20.269 3.485 18.87 4.117 17.516 4.813 16.195 5.574 14.915 6.394 13.683 7.276 12.484 8.214 11.341 9.208 10.246 10.247 9.207 11.342 8.214 12.484 7.276 13.679 6.394 14.916 5.574 16.195 4.814 17.517 4.116 18.871 3.486 20.27 2.914 21.7 2.422 23.166 1.993 24.658 1.642 26.176 1.363 27.731 1.166 29.304 1.04 30.898 1 32.515 1.04 34.139 1.166 35.734 1.363 37.307 1.642 38.853 1.993 40.378 2.422 41.871 2.914 43.337 3.486 44.766 4.116 46.159 4.814 47.521 5.574 48.842 6.394 50.12 7.276 51.355 8.214 52.544 9.207 53.688 10.246 54.783 11.341 55.831 12.484 56.823 13.683 57.76 14.915 58.638 16.195 59.457 17.516 60.225 18.87 60.917 20.269 61.55 21.699 62.114 23.165 62.614 24.658 63.036 26.183 63.396 27.732 63.666 29.304 63.869 30.899 63.997 32.521 64.039" fill="#974578" clip-rule="evenodd" fill-rule="evenodd"/>
  <polygon id="svg_2" points="32.521 62.418 34.055 62.383 35.568 62.264 37.06 62.07 38.53 61.813 39.976 61.475 41.395 61.071 42.781 60.602 44.137 60.06 45.46 59.462 46.753 58.801 48.005 58.077 49.214 57.299 50.389 56.464 51.516 55.577 52.603 54.632 53.647 53.648 54.64 52.604 55.578 51.514 56.464 50.39 57.299 49.217 58.08 47.997 58.8 46.752 59.462 45.46 60.065 44.137 60.6 42.781 61.074 41.395 61.475 39.975 61.81 38.53 62.07 37.06 62.263 35.568 62.381 34.056 62.42 32.515 62.381 30.983 62.263 29.469 62.07 27.977 61.81 26.507 61.475 25.062 61.074 23.642 60.6 22.254 60.065 20.9 59.462 19.572 58.8 18.284 58.08 17.031 57.299 15.823 56.464 14.648 55.578 13.513 54.64 12.433 53.647 11.389 52.603 10.396 51.516 9.458 50.389 8.573 49.214 7.737 48.005 6.957 46.753 6.237 45.46 5.574 44.137 4.971 42.781 4.437 41.395 3.962 39.976 3.561 38.53 3.226 37.06 2.967 35.568 2.773 34.055 2.656 32.521 2.616 30.981 2.656 29.469 2.773 27.976 2.967 26.505 3.226 25.061 3.561 23.642 3.962 22.254 4.437 20.9 4.971 19.572 5.574 18.284 6.237 17.031 6.957 15.822 7.737 14.647 8.573 13.521 9.458 12.433 10.396 11.389 11.389 10.397 12.433 9.459 13.513 8.572 14.648 7.737 15.823 6.957 17.031 6.236 18.284 5.574 19.572 4.972 20.9 4.436 22.254 3.963 23.642 3.561 25.062 3.226 26.507 2.967 27.977 2.773 29.469 2.655 30.983 2.615 32.515 2.655 34.056 2.773 35.568 2.967 37.06 3.226 38.53 3.561 39.975 3.963 41.395 4.436 42.781 4.972 44.137 5.574 45.46 6.236 46.752 6.957 47.997 7.737 49.217 8.572 50.39 9.459 51.514 10.397 52.604 11.389 53.648 12.433 54.632 13.521 55.577 14.647 56.464 15.822 57.299 17.031 58.077 18.284 58.801 19.572 59.462 20.9 60.06 22.254 60.602 23.642 61.071 25.061 61.475 26.505 61.813 27.976 62.07 29.469 62.264 30.981 62.383 32.521 62.418" fill="#FFFFFF" clip-rule="evenodd" fill-rule="evenodd"/>
  <polygon id="svg_3" points="32.521 52.579 33.547 52.553 34.563 52.473 35.568 52.345 36.552 52.173 37.526 51.95 38.471 51.675 39.409 51.359 40.319 50.996 41.202 50.597 42.072 50.153 42.907 49.669 43.719 49.146 44.507 48.588 45.268 47.991 46 47.355 46.689 46.69 47.362 45.991 47.99 45.268 48.588 44.508 49.147 43.721 49.668 42.909 50.152 42.064 50.597 41.2 51.004 40.312 51.358 39.401 51.673 38.474 51.949 37.517 52.173 36.553 52.351 35.568 52.473 34.563 52.556 33.546 52.583 32.515 52.556 31.49 52.473 30.468 52.351 29.469 52.173 28.484 51.949 27.511 51.673 26.563 51.358 25.626 51.004 24.718 50.597 23.835 50.152 22.964 49.668 22.126 49.147 21.317 48.588 20.53 47.99 19.769 47.362 19.038 46.689 18.339 46 17.674 45.268 17.047 44.507 16.448 43.719 15.889 42.907 15.369 42.072 14.883 41.202 14.44 40.319 14.034 39.409 13.679 38.471 13.364 37.526 13.087 36.552 12.863 35.568 12.686 34.563 12.564 33.547 12.482 32.521 12.454 31.49 12.482 30.473 12.564 29.469 12.686 28.484 12.863 27.511 13.087 26.565 13.364 25.627 13.679 24.718 14.034 23.835 14.44 22.964 14.883 22.129 15.369 21.317 15.889 20.53 16.448 19.769 17.047 19.037 17.674 18.347 18.339 17.673 19.038 17.047 19.769 16.448 20.53 15.888 21.317 15.369 22.126 14.884 22.964 14.438 23.835 14.033 24.718 13.678 25.626 13.363 26.563 13.087 27.511 12.862 28.484 12.685 29.469 12.563 30.468 12.481 31.49 12.454 32.515 12.481 33.546 12.563 34.563 12.685 35.568 12.862 36.553 13.087 37.517 13.363 38.474 13.678 39.401 14.033 40.312 14.438 41.2 14.884 42.064 15.369 42.909 15.888 43.721 16.448 44.508 17.047 45.268 17.673 45.991 18.347 46.69 19.037 47.355 19.769 47.991 20.53 48.588 21.317 49.146 22.129 49.669 22.964 50.153 23.835 50.597 24.718 50.996 25.627 51.359 26.565 51.675 27.511 51.95 28.484 52.173 29.469 52.345 30.473 52.473 31.49 52.553 32.521 52.579" fill="#974578" clip-rule="evenodd" fill-rule="evenodd"/>
  <polygon id="svg_4" points="32.521 51.031 33.467 51.012 34.405 50.937 35.335 50.819 36.245 50.652 37.135 50.449 38.01 50.195 38.874 49.909 39.716 49.574 40.535 49.203 41.331 48.793 42.104 48.348 42.856 47.858 43.585 47.347 44.291 46.794 44.96 46.214 45.602 45.604 46.216 44.959 46.8 44.282 47.347 43.584 47.868 42.858 48.348 42.104 48.793 41.333 49.202 40.532 49.582 39.717 49.908 38.874 50.203 38.01 50.447 37.135 50.66 36.237 50.818 35.329 50.941 34.406 51.012 33.468 51.038 32.515 51.012 31.564 50.941 30.628 50.818 29.701 50.66 28.791 50.447 27.901 50.203 27.019 49.908 26.163 49.582 25.32 49.202 24.5 48.793 23.705 48.348 22.924 47.868 22.182 47.347 21.452 46.8 20.747 46.216 20.075 45.602 19.435 44.96 18.82 44.291 18.237 43.585 17.689 42.856 17.168 42.104 16.688 41.331 16.242 40.535 15.834 39.716 15.455 38.874 15.129 38.01 14.832 37.135 14.588 36.245 14.375 35.335 14.211 34.405 14.096 33.467 14.025 32.521 13.999 31.568 14.025 30.63 14.096 29.702 14.211 28.792 14.375 27.9 14.588 27.026 14.832 26.163 15.129 25.32 15.455 24.5 15.834 23.705 16.242 22.933 16.688 22.181 17.168 21.451 17.689 20.746 18.237 20.076 18.82 19.435 19.435 18.819 20.075 18.236 20.747 17.688 21.452 17.168 22.182 16.688 22.924 16.243 23.705 15.833 24.5 15.455 25.32 15.128 26.163 14.833 27.019 14.588 27.901 14.375 28.791 14.218 29.701 14.096 30.628 14.025 31.564 13.997 32.515 14.025 33.468 14.096 34.406 14.218 35.329 14.375 36.237 14.588 37.135 14.833 38.01 15.128 38.874 15.455 39.717 15.833 40.532 16.243 41.333 16.688 42.104 17.168 42.858 17.688 43.584 18.236 44.282 18.819 44.959 19.435 45.604 20.076 46.214 20.746 46.794 21.451 47.347 22.181 47.858 22.933 48.348 23.705 48.793 24.5 49.203 25.32 49.574 26.163 49.909 27.026 50.195 27.9 50.449 28.792 50.652 29.702 50.819 30.63 50.937 31.568 51.012 32.521 51.031" fill="#FFFFFF" clip-rule="evenodd" fill-rule="evenodd"/>
  <path id="svg_5" d="m32.521,14.313l5.257,5.503l7.611,-0.167999l-0.176998,7.611l5.511997,5.255999l-5.511997,5.264l0.176998,7.604l-7.611,-0.169998l-5.257,5.502998l-5.263,-5.502998l-7.612,0.169998l0.177999,-7.604l-5.511999,-5.264l5.511999,-5.255999l-0.177999,-7.611l7.612,0.167999l5.263,-5.503l0,0zm0,2.075001l4.653999,4.882l6.749001,-0.158001l-0.158001,6.742001l4.881001,4.66l-4.881001,4.66l0.158001,6.743999l-6.749001,-0.152l-4.653999,4.877003l-4.66,-4.877003l-6.749001,0.152l0.158001,-6.743999l-4.882,-4.66l4.882,-4.66l-0.158001,-6.742001l6.749001,0.158001l4.66,-4.882l0,0z" fill="#974578" clip-rule="evenodd" fill-rule="evenodd"/>
  <path id="svg_6" d="m11.602,37.944l0.276,0.841999l-3.554,3.188l0.007,0.032001l4.153,-1.345001l0.248,0.763l-5.728,1.866001l-0.267,-0.834999l3.553,-3.190002l-0.014,-0.033001l-4.149,1.348003l-0.252,-0.776001l5.727,-1.860001l0,0zm-0.733,-5.285l0.101999,0.834999l-1.792,0.689999l0.201,1.596001l1.907,0.233002l0.102,0.841l-6.26,-1.007999l-0.091,-0.695l5.831,-2.492001l0,0zm-2.325,1.801998l-2.068001,0.839001l0.007,0.047001l2.203,0.321999l-0.141999,-1.208l0,0zm2.879999,-6.467999l-0.113999,0.865999l-4.593,1.315001l-0.008,0.035l4.317,0.603001l-0.106,0.799999l-5.965,-0.834999l0.126,-0.872l4.585001,-1.310001l0.004,-0.035l-4.318,-0.612999l0.111,-0.797001l5.961,0.843l0,0zm1.706,-5l-0.35,0.851l-3.361,0.382l0.458,0.796l2.087,0.838001l-0.299,0.754l-5.587,-2.25l0.304,-0.752001l2.422999,0.978001l-1.669999,-2.843l0.354,-0.882l1.477,2.643l4.164001,-0.514999l0,0zm2.664,-4.271999l-0.467999,0.705l-1.813,-0.621l-0.875,1.344999l1.304,1.408001l-0.457001,0.709999l-4.148,-4.799999l0.381001,-0.585001l6.075999,1.838001l0,0zm-2.950999,-0.113001l-2.116,-0.684999l-0.027,0.036999l1.478001,1.667002l0.665,-1.019001l0,0zm5.319,-2.108999l-0.596001,0.552l-4.109,-4.400001l0.595,-0.557l4.110001,4.405001l0,0zm12.039999,-7.256001l0.02,0.102l0.014999,0.101999l0.004,0.095l0.008001,0.098001l0,0.094999l-0.008001,0.096001l-0.004,0.091l-0.007,0.086l-0.017,0.082l-0.018999,0.091l-0.02,0.082l-0.028,0.075001l-0.035,0.082l-0.028,0.076l-0.039,0.066l-0.043001,0.076l-0.048,0.070999l-0.046999,0.06l-0.055,0.068l-0.059999,0.056l-0.063,0.053l-0.066,0.054l-0.074001,0.055l-0.08,0.044l-0.077999,0.046l-0.091,0.04l-0.096001,0.035l-0.098,0.035999l-0.095001,0.031l-0.108999,0.026l-0.111,0.029l-0.114,0.021l-0.118,0.024l-0.107,0.011l-0.108999,0.006001l-0.101999,0.009l-0.103001,0l-0.101999,-0.009l-0.099001,-0.006001l-0.086,-0.011l-0.091,-0.018l-0.091,-0.027l-0.078001,-0.02l-0.082998,-0.035001l-0.074001,-0.031l-0.076,-0.044l-0.07,-0.04l-0.059,-0.052999l-0.070999,-0.046l-0.059,-0.064l-0.056,-0.056l-0.055,-0.06l-0.047001,-0.071l-0.055,-0.066l-0.045,-0.075999l-0.046999,-0.076l-0.039,-0.073l-0.035,-0.091001l-0.036001,-0.082l-0.032,-0.091l-0.028,-0.095l-0.023001,-0.095l-0.028,-0.092999l-0.018999,-0.106l-0.737,-4.198l0.799,-0.142l0.74,4.196l0.025,0.143l0.035,0.13l0.046,0.124l0.048,0.104l0.063,0.093l0.063,0.091l0.067001,0.076l0.083,0.06l0.083,0.052999l0.087,0.044001l0.091,0.030999l0.094,0.024l0.098999,0.011001l0.105001,0.009l0.105999,-0.009l0.107,-0.011001l0.110001,-0.028999l0.101999,-0.027l0.099001,-0.044l0.085999,-0.047l0.083,-0.055l0.073999,-0.058001l0.068001,-0.07l0.063,-0.084l0.047001,-0.078l0.043999,-0.1l0.031,-0.102l0.024,-0.110999l0.003,-0.113001l0,-0.129l-0.000999,-0.129l-0.024,-0.146l-0.737,-4.197l0.792,-0.142l0.740999,4.197l0,0zm5.227001,1.911l-0.882999,-0.055l-1.627003,-4.492l-0.034996,-0.009l-0.299004,4.354l-0.811998,-0.054999l0.417997,-6l0.886002,0.058l1.619999,4.485l0.035,0l0.307003,-4.345l0.807999,0.053l-0.417999,6.006001l0,0zm3.490997,0.763l-0.780998,-0.204l1.561001,-5.82l0.779999,0.213l-1.560001,5.811l0,0zm8.967003,-2.386l-4.487,4.467l-0.618,-0.339l1.410999,-6.181l0.739998,0.408l-1.131001,4.649l0.016003,0.004l3.336998,-3.417999l0.732002,0.41l0,0zm0.666,8.513l-2.629002,-2.443001l4.105999,-4.408999l2.498001,2.335999l-0.449001,0.485l-1.910999,-1.78l-1.271999,1.37l1.752998,1.628l-0.460999,0.492l-1.752998,-1.636999l-1.461002,1.577l2.035999,1.896l-0.456997,0.485001l0,0zm2.934998,4.129l-0.457001,-0.705l1.504002,-2.470001l-0.512001,-0.779999l-2.182999,1.414l-0.445,-0.677999l5.049999,-3.277l0.957001,1.472l0.110001,0.177l0.086998,0.177999l0.042999,0.083l0.036003,0.087l0.031998,0.091l0.027,0.082001l0.019001,0.086l0.024998,0.081999l0.011002,0.091002l0.016998,0.081999l0.003002,0.084l0.007999,0.078001l0,0.091l-0.007999,0.082001l-0.003002,0.084l-0.023998,0.081999l-0.02,0.075001l-0.019001,0.077999l-0.035,0.080002l-0.031998,0.075998l-0.051003,0.073l-0.046997,0.076l-0.055,0.069l-0.055,0.073l-0.067001,0.07l-0.066998,0.067001l-0.074001,0.063999l-0.083,0.066l-0.091,0.064001l-0.094002,0.066999l-0.146,0.09l-0.140999,0.066999l-0.146,0.062l-0.133999,0.049l-0.071003,0.011l-0.065998,0.016001l-0.068001,0.007l-0.070999,0.004l-0.066002,0.009001l-0.070999,-0.009001l-0.058998,0l-0.071003,-0.011l-0.122997,-0.021l-0.122002,-0.035l-0.117001,-0.040001l-0.105999,-0.051001l-0.105999,-0.050999l-0.095001,-0.063l-0.093998,-0.066l-0.083,-0.084002l-1.551003,2.602001l0,0zm3.069,-3.171l0.095001,-0.069l0.09,-0.067001l0.075001,-0.081999l0.066998,-0.083l0.055,-0.083l0.040001,-0.086l0.035999,-0.098l0.026001,-0.101999l0.008999,-0.049l0.003002,-0.055l0,-0.056l-0.003002,-0.052l-0.015999,-0.109001l-0.028,-0.125l-0.047001,-0.122l-0.055,-0.124001l-0.066998,-0.136999l-0.091003,-0.138l-0.417999,-0.649l-1.744999,1.130001l0.542999,0.827l0.050999,0.091l0.072002,0.076l0.067001,0.073l0.070999,0.059999l0.073997,0.064001l0.083,0.046l0.079002,0.046999l0.091,0.044001l0.045998,0.011l0.048,0.016001l0.047001,0.008999l0.050999,0.004002l0.047001,0l0.055,0l0.047001,-0.004002l0.056,-0.008999l0.102001,-0.027l0.110001,-0.044001l0.113998,-0.050999l0.119999,-0.077l0,0zm0.347,7.043999l-0.093998,0.035l-0.091,0.035l-0.094002,0.027l-0.091,0.02l-0.085999,0.013l-0.091003,0.015999l-0.086998,0.002001l-0.09,0.008999l-0.082001,-0.008999l-0.086998,-0.002001l-0.083,-0.008999l-0.083,-0.02l-0.083,-0.02l-0.082001,-0.022999l-0.083,-0.031l-0.074001,-0.037001l-0.083,-0.035999l-0.073997,-0.046001l-0.067001,-0.046999l-0.076,-0.048l-0.070999,-0.052999l-0.059002,-0.064001l-0.071999,-0.057999l-0.058998,-0.073l-0.055,-0.066l-0.056,-0.073l-0.054001,-0.084002l-0.056,-0.083l-0.047001,-0.085999l-0.047001,-0.1l-0.047001,-0.093l-0.042999,-0.094999l-0.030998,-0.106001l-0.037003,-0.102999l-0.035,-0.095001l-0.018997,-0.093l-0.02,-0.099998l-0.016003,-0.095001l-0.012997,-0.093l-0.007,-0.091l0,-0.087l0,-0.091l0.015999,-0.091l0.003998,-0.086l0.023003,-0.082001l0.02,-0.084l0.028,-0.081999l0.030998,-0.082001l0.035,-0.08l0.042999,-0.076l0.041,-0.077l0.046001,-0.066l0.048,-0.069l0.047001,-0.062l0.056,-0.062l0.062,-0.060999l0.063,-0.055l0.057999,-0.056l0.071999,-0.046001l0.074001,-0.046999l0.074001,-0.044001l0.076,-0.046999l0.083,-0.036001l0.083,-0.031l0.224998,-0.099998l0.306999,0.753l-0.196999,0.077999l-0.117001,0.051001l-0.111,0.063999l-0.095001,0.063l-0.083,0.075001l-0.073997,0.074999l-0.060001,0.082001l-0.050999,0.087999l-0.039001,0.102001l-0.035999,0.098l-0.02,0.104l-0.012001,0.094999l0,0.102001l0.004002,0.098l0.015999,0.101999l0.027,0.095001l0.030998,0.094999l0.056004,0.125999l0.063,0.113001l0.063,0.095999l0.073997,0.091002l0.076,0.073l0.082001,0.066999l0.083,0.049999l0.094002,0.041l0.087997,0.028l0.099003,0.02l0.093998,0.007l0.094002,0.009001l0.098999,-0.009001l0.093998,-0.02l0.103001,-0.025999l0.094002,-0.036001l0.083,-0.035l0.070999,-0.046l0.065998,-0.056l0.066002,-0.059999l0.056,-0.07l0.055,-0.082001l0.048,-0.087l0.042999,-0.094999l0.030998,-0.111l0.036003,-0.111l0.027,-0.122002l0.019997,-0.129l0.023003,-0.130999l0.013,-0.146l0.007999,-0.148001l0.002998,-0.157l-0.002998,-0.222l0.002998,-0.204l0.018002,-0.198999l0.019001,-0.178001l0.028,-0.165998l0.042999,-0.158001l0.040001,-0.142l0.056,-0.125l0.053997,-0.115l0.068001,-0.111l0.074001,-0.101999l0.091,-0.091l0.085999,-0.082001l0.107002,-0.066l0.105999,-0.069l0.118999,-0.056l0.085999,-0.026001l0.083,-0.025999l0.089001,-0.028999l0.083,-0.012001l0.083,-0.024l0.079002,-0.004l0.081997,-0.007l0.083,0l0.083,0.007l0.082001,0.004l0.076,0.017l0.083,0.013l0.074001,0.027l0.083,0.019999l0.073997,0.035002l0.076,0.035999l0.074001,0.039999l0.075001,0.042l0.070999,0.040001l0.067001,0.046l0.067997,0.056l0.063,0.048l0.055,0.063l0.060001,0.056l0.050999,0.060001l0.055,0.062l0.047001,0.066l0.040001,0.070999l0.046997,0.075001l0.044003,0.076l0.030998,0.073l0.035999,0.084l0.043003,0.101999l0.030998,0.101999l0.028,0.102001l0.027,0.1l0.015999,0.092999l0.012001,0.095001l0.007999,0.098l0.007,0.089001l-0.007,0.088999l-0.007999,0.084l-0.012001,0.087002l-0.022999,0.081999l-0.027,0.075001l-0.027,0.083l-0.040001,0.074999l-0.039997,0.067001l-0.091,0.146l-0.102001,0.129999l-0.102001,0.114l-0.118,0.111l-0.122997,0.098l-0.129002,0.079l-0.131001,0.08l-0.141998,0.066l-0.311001,-0.754l0.09,-0.026001l0.091,-0.043999l0.078999,-0.047001l0.071003,-0.055l0.066998,-0.059999l0.070999,-0.071001l0.051003,-0.073l0.056,-0.084l0.045998,-0.087l0.028,-0.091l0.028004,-0.093l0.007,-0.094999l0,-0.098l-0.012001,-0.095001l-0.028,-0.101999l-0.035999,-0.111l-0.046001,-0.091l-0.042999,-0.086l-0.051003,-0.082001l-0.056,-0.066l-0.063,-0.063999l-0.063,-0.056l-0.066998,-0.046l-0.075001,-0.040001l-0.074001,-0.027l-0.084,-0.031l-0.083,-0.015999l-0.082001,0l-0.083,0l-0.077999,0.015999l-0.091,0.029001l-0.091,0.026999l-0.067001,0.031l-0.065998,0.035l-0.063,0.041l-0.056,0.048l-0.055,0.051001l-0.047001,0.052999l-0.040001,0.061001l-0.035999,0.063l-0.035999,0.083l-0.027,0.085999l-0.028,0.117001l-0.011002,0.131001l-0.016998,0.157l-0.011002,0.162001l0,0.192999l0,0.204l-0.007999,0.205999l-0.012001,0.200001l-0.022999,0.187l-0.023998,0.177l-0.036003,0.167999l-0.042999,0.167l-0.056,0.149l-0.050999,0.146l-0.070999,0.131001l-0.074001,0.122l-0.083,0.115l-0.094002,0.104l-0.046997,0.040001l-0.055,0.046999l-0.047001,0.044001l-0.056,0.031l-0.122002,0.073999l-0.125999,0.056l0,0zm-0.931,4.148001l-0.117001,-0.800001l5.969002,-0.832998l0.111,0.797998l-5.963001,0.835001l0,0zm5.088001,6.959999l0.167999,-1.394001l-5.317001,-0.648998l0.102001,-0.810001l5.314999,0.654003l0.168003,-1.401001l0.667,0.082001l-0.441002,3.599998l-0.661999,-0.082001l0,0zm-1.151001,6.267002l-2.636002,-2.602001l-2.580997,-0.835999l0.251999,-0.776001l2.576,0.844997l3.660999,-0.556l-0.251999,0.776001l-2.820999,0.372002l-0.009003,0.037998l2.058002,1.964001l-0.248001,0.775002l0,0z" fill="#974578" clip-rule="evenodd" fill-rule="evenodd"/>
  <polygon id="svg_7" points="13.445 49.323 13.531 49.323 13.623 49.305 13.705 49.285 13.78 49.259 13.854 49.219 13.929 49.178 14 49.129 14.059 49.067 14.115 49.008 14.162 48.945 14.206 48.868 14.244 48.794 14.272 48.719 14.292 48.637 14.308 48.547 14.312 48.459 14.308 48.368 14.292 48.286 14.272 48.205 14.244 48.126 14.206 48.049 14.162 47.972 14.115 47.912 14.059 47.85 14 47.795 13.929 47.74 13.854 47.698 13.78 47.663 13.705 47.632 13.623 47.607 13.531 47.597 13.445 47.597 13.354 47.597 13.272 47.607 13.192 47.632 13.11 47.663 13.035 47.698 12.964 47.74 12.897 47.795 12.834 47.85 12.779 47.912 12.725 47.972 12.685 48.049 12.649 48.126 12.618 48.205 12.594 48.286 12.582 48.368 12.582 48.459 12.582 48.547 12.594 48.637 12.618 48.719 12.649 48.794 12.685 48.868 12.725 48.945 12.779 49.008 12.834 49.067 12.897 49.129 12.964 49.178 13.035 49.219 13.11 49.259 13.192 49.285 13.272 49.305 13.354 49.323 13.445 49.323" fill="#974578" clip-rule="evenodd" fill-rule="evenodd"/>
  <polygon id="svg_8" points="51.93 49.237 52.013 49.237 52.099 49.219 52.182 49.199 52.265 49.173 52.338 49.133 52.411 49.092 52.478 49.043 52.54 48.981 52.591 48.922 52.643 48.859 52.69 48.782 52.721 48.708 52.749 48.633 52.772 48.551 52.785 48.461 52.792 48.373 52.785 48.282 52.772 48.2 52.749 48.119 52.721 48.04 52.69 47.963 52.643 47.886 52.591 47.826 52.54 47.764 52.478 47.709 52.411 47.654 52.338 47.612 52.265 47.577 52.182 47.546 52.099 47.521 52.013 47.511 51.93 47.511 51.838 47.511 51.752 47.521 51.669 47.546 51.586 47.577 51.512 47.612 51.445 47.654 51.375 47.709 51.314 47.764 51.26 47.826 51.212 47.886 51.162 47.963 51.129 48.04 51.102 48.119 51.083 48.2 51.067 48.282 51.059 48.373 51.067 48.461 51.083 48.551 51.102 48.633 51.129 48.708 51.162 48.782 51.212 48.859 51.26 48.922 51.314 48.981 51.375 49.043 51.445 49.092 51.512 49.133 51.586 49.173 51.669 49.199 51.752 49.219 51.838 49.237 51.93 49.237" fill="#974578" clip-rule="evenodd" fill-rule="evenodd"/>
  <polygon id="svg_9" points="37.034 33.722 36.962 37.666 36.95 37.814 36.942 37.962 36.939 38.109 36.922 38.26 36.915 38.4 36.902 38.555 36.895 38.702 36.887 38.844 36.868 39.105 36.859 39.3 36.856 39.421 36.856 39.477 36.856 39.938 36.737 40.653 36.671 41.407 36.643 41.509 36.607 41.63 36.56 41.784 36.498 41.952 36.466 42.045 36.422 42.12 36.383 42.18 36.328 42.23 36.308 42.25 36.273 42.261 36.245 42.276 36.209 42.28 36.151 42.296 36.076 42.289 35.957 42.289 35.863 42.276 35.819 42.27 35.789 42.254 35.753 42.241 35.725 42.23 35.705 42.206 35.686 42.186 35.67 42.152 35.659 42.113 35.63 42.017 35.614 41.891 35.614 41.77 35.614 41.668 35.622 41.591 35.634 41.535 35.855 39.142 36.076 34.852 36.115 33.759 35.807 33.814 35.576 33.858 35.418 33.878 35.342 33.885 35.26 33.889 35.189 33.889 35.13 33.885 35.067 33.869 35.02 33.85 34.98 33.823 34.944 33.783 34.917 33.739 34.882 33.652 34.862 33.57 34.854 33.528 34.854 33.494 34.854 33.459 34.862 33.424 34.871 33.366 34.878 33.302 34.891 33.24 34.917 33.185 34.944 33.134 34.98 33.082 35.02 33.027 35.067 32.979 35.13 32.941 35.205 32.892 35.307 32.85 35.429 32.81 35.568 32.766 35.733 32.735 35.91 32.699 36.115 32.663 36.076 31.699 35.867 31.735 35.69 31.755 35.614 31.755 35.54 31.755 35.473 31.75 35.418 31.742 35.348 31.735 35.28 31.726 35.216 31.714 35.166 31.694 35.11 31.672 35.059 31.652 35.02 31.624 34.985 31.593 34.953 31.564 34.925 31.521 34.901 31.481 34.882 31.438 34.871 31.391 34.862 31.345 34.862 31.289 34.862 31.233 34.871 31.174 34.882 31.12 34.901 31.056 34.929 31.001 34.965 30.946 35.008 30.892 35.059 30.843 35.122 30.797 35.158 30.771 35.213 30.75 35.272 30.73 35.342 30.714 35.528 30.681 35.761 30.646 36.032 30.62 36.355 30.593 36.726 30.556 37.143 30.523 37.459 30.497 37.77 30.468 38.081 30.446 38.396 30.418 38.711 30.396 39.019 30.367 39.333 30.341 39.649 30.315 39.854 30.304 40.043 30.304 40.208 30.315 40.35 30.345 40.476 30.372 40.578 30.4 40.654 30.433 40.717 30.462 40.755 30.491 40.796 30.517 40.839 30.549 40.866 30.584 40.898 30.62 40.925 30.655 40.95 30.694 40.968 30.732 41.004 30.813 41.028 30.878 41.052 30.944 41.063 30.99 41.063 31.03 41.063 31.071 41.056 31.111 41.044 31.152 41.028 31.178 41.009 31.207 40.98 31.227 40.95 31.253 40.866 31.297 40.755 31.345 40.634 31.385 40.48 31.42 40.319 31.462 40.126 31.49 40.162 32.501 40.488 32.542 40.736 32.586 40.831 32.606 40.898 32.624 40.953 32.646 40.988 32.663 41.009 32.692 41.028 32.735 41.044 32.774 41.063 32.836 41.079 32.905 41.083 32.979 41.09 33.069 41.1 33.174 41.1 33.227 41.09 33.267 41.071 33.315 41.052 33.357 41.016 33.393 40.98 33.424 40.933 33.452 40.886 33.479 40.823 33.499 40.755 33.516 40.681 33.528 40.599 33.544 40.509 33.546 40.413 33.555 40.312 33.555 40.201 33.546 40.236 40.572 40.236 40.853 40.228 41.099 40.217 41.324 40.201 41.524 40.189 41.688 40.162 41.824 40.142 41.935 40.106 42.017 40.07 42.085 40.04 42.14 40.004 42.186 39.961 42.221 39.921 42.254 39.881 42.276 39.838 42.289 39.791 42.289 39.736 42.289 39.68 42.289 39.633 42.276 39.586 42.254 39.543 42.23 39.503 42.203 39.467 42.159 39.437 42.113 39.409 42.058 39.381 42.001 39.361 41.935 39.346 41.859 39.333 41.778 39.326 41.688 39.318 41.6 39.318 41.498 39.279 38.93 39.244 33.591 39.102 33.61 38.963 33.63 38.826 33.637 38.687 33.646 38.408 33.652 38.136 33.652 37.86 33.652 37.588 33.656 37.451 33.665 37.305 33.677 37.171 33.691 37.034 33.722" fill="#974578" clip-rule="evenodd" fill-rule="evenodd"/>
  <polygon id="svg_10" points="37.034 32.586 37.313 32.571 37.588 32.562 37.86 32.551 38.136 32.542 38.416 32.531 38.687 32.522 38.963 32.506 39.244 32.501 39.208 31.529 38.917 31.542 38.633 31.558 38.36 31.564 38.093 31.569 37.825 31.584 37.553 31.604 37.277 31.624 36.998 31.659 37.034 32.586" fill="#FFFFFF" clip-rule="evenodd" fill-rule="evenodd"/>
  <polygon id="svg_11" points="36.781 24.008 36.757 23.862 36.745 23.713 36.729 23.567 36.726 23.418 36.718 23.35 36.726 23.279 36.729 23.221 36.745 23.157 36.765 23.102 36.785 23.048 36.82 23 36.856 22.962 36.887 22.913 36.931 22.862 36.97 22.822 37.017 22.787 37.069 22.76 37.116 22.74 37.163 22.72 37.218 22.705 37.266 22.711 37.313 22.729 37.353 22.755 37.396 22.787 37.443 22.831 37.487 22.887 37.526 22.944 37.564 23.02 37.608 23.11 37.64 23.221 37.675 23.354 37.703 23.507 37.723 23.685 37.746 23.882 37.758 24.104 37.77 24.348 37.848 25.944 37.848 26.046 37.848 26.183 37.848 26.361 37.848 26.573 37.833 26.806 37.813 27.026 37.793 27.239 37.77 27.429 37.738 27.604 37.703 27.771 37.667 27.928 37.62 28.067 37.573 28.197 37.51 28.311 37.435 28.429 37.353 28.54 37.257 28.642 37.147 28.737 37.034 28.826 36.902 28.91 36.833 28.94 36.753 28.986 36.663 29.023 36.56 29.063 36.336 29.145 36.068 29.236 35.761 29.322 35.409 29.414 35.028 29.504 34.61 29.6 34.641 32.501 34.641 33.591 34.567 38.129 34.563 38.295 34.546 38.474 34.536 38.66 34.519 38.865 34.5 39.086 34.488 39.311 34.464 39.558 34.437 39.812 34.417 40.067 34.39 40.312 34.362 40.543 34.331 40.755 34.295 40.962 34.26 41.154 34.224 41.333 34.185 41.498 34.138 41.639 34.09 41.77 34.063 41.824 34.027 41.88 34 41.926 33.964 41.97 33.933 42.001 33.897 42.038 33.857 42.064 33.822 42.085 33.783 42.104 33.74 42.12 33.692 42.124 33.652 42.124 33.602 42.124 33.563 42.124 33.527 42.124 33.487 42.12 33.452 42.104 33.424 42.094 33.396 42.073 33.377 42.049 33.35 42.021 33.337 41.992 33.314 41.961 33.302 41.926 33.287 41.844 33.282 41.74 33.282 41.556 33.282 41.423 33.282 41.324 33.282 41.286 33.542 37.505 33.609 32.501 33.609 29.265 33.609 29.032 33.609 28.804 33.602 28.587 33.598 28.367 33.582 28.149 33.57 27.937 33.553 27.724 33.542 27.518 33.522 27.318 33.507 27.141 33.5 26.983 33.495 26.842 33.487 26.719 33.495 26.608 33.495 26.518 33.5 26.452 33.507 26.305 33.515 26.176 33.527 26.046 33.542 25.915 33.57 25.802 33.598 25.682 33.629 25.574 33.672 25.472 33.72 25.367 33.768 25.272 33.822 25.183 33.885 25.095 33.951 25.021 34.019 24.946 34.103 24.869 34.185 24.809 34.275 24.745 34.37 24.687 34.48 24.622 34.603 24.567 34.724 24.514 34.871 24.458 35.011 24.403 35.17 24.354 35.342 24.308 35.512 24.261 35.705 24.212 35.894 24.17 36.32 24.088 36.781 24.008" fill="#974578" clip-rule="evenodd" fill-rule="evenodd"/>
  <polygon id="svg_12" points="36.887 25.731 36.887 25.183 36.58 25.234 36.3 25.285 36.041 25.336 35.792 25.387 35.576 25.443 35.375 25.504 35.189 25.569 35.028 25.626 34.891 25.691 34.768 25.758 34.713 25.793 34.666 25.829 34.622 25.859 34.583 25.895 34.546 25.931 34.519 25.964 34.5 26.006 34.48 26.042 34.464 26.081 34.46 26.116 34.46 26.154 34.46 26.192 34.46 26.534 36.887 25.731" fill="#FFFFFF" clip-rule="evenodd" fill-rule="evenodd"/>
  <polygon id="svg_13" points="34.567 27.791 34.567 28.42 35.055 28.353 35.477 28.283 35.662 28.251 35.843 28.208 35.997 28.177 36.134 28.134 36.265 28.094 36.375 28.05 36.47 28.003 36.552 27.964 36.623 27.917 36.671 27.866 36.691 27.846 36.702 27.819 36.718 27.799 36.726 27.771 36.765 27.558 36.805 27.334 36.848 27.085 36.887 26.826 34.536 27.66 34.567 27.791" fill="#FFFFFF" clip-rule="evenodd" fill-rule="evenodd"/>
  <polygon id="svg_14" points="39.318 23.76 39.791 23.826 40.22 23.897 40.59 23.966 40.906 24.028 41.166 24.088 41.378 24.15 41.46 24.177 41.528 24.206 41.592 24.234 41.63 24.261 41.706 24.316 41.776 24.383 41.843 24.458 41.906 24.541 41.974 24.631 42.036 24.733 42.092 24.84 42.147 24.958 42.203 25.082 42.249 25.219 42.289 25.367 42.324 25.524 42.352 25.7 42.379 25.884 42.391 26.072 42.407 26.278 42.363 28.464 42.407 33.295 42.698 39.771 42.809 41.2 42.809 41.304 42.809 41.414 42.809 41.516 42.809 41.619 42.801 41.707 42.796 41.789 42.781 41.859 42.761 41.926 42.742 41.992 42.722 42.049 42.695 42.1 42.667 42.148 42.631 42.186 42.593 42.215 42.549 42.241 42.509 42.261 42.461 42.28 42.407 42.289 42.352 42.289 42.297 42.289 42.241 42.289 42.195 42.276 42.147 42.261 42.099 42.241 42.056 42.206 42.017 42.175 41.981 42.133 41.946 42.085 41.914 42.021 41.887 41.945 41.863 41.853 41.84 41.749 41.824 41.626 41.805 41.48 41.789 41.333 41.784 41.161 41.6 38.806 41.378 34.604 41.34 29.347 40.997 29.304 40.673 29.265 40.385 29.221 40.119 29.181 39.885 29.134 39.672 29.092 39.492 29.052 39.333 29.012 39.263 28.988 39.196 28.961 39.125 28.932 39.066 28.901 39.003 28.866 38.944 28.826 38.889 28.784 38.833 28.743 38.778 28.697 38.732 28.642 38.684 28.596 38.633 28.531 38.585 28.476 38.546 28.409 38.503 28.347 38.471 28.271 38.436 28.206 38.4 28.125 38.369 28.045 38.341 27.964 38.293 27.779 38.25 27.586 38.215 27.374 38.187 27.15 38.176 26.908 38.176 26.655 38.176 26.278 38.176 26.203 38.183 26.081 38.187 25.913 38.203 25.7 38.223 25.432 38.243 25.123 38.271 24.764 38.298 24.363 38.317 24.159 38.341 23.966 38.369 23.789 38.396 23.623 38.423 23.472 38.456 23.334 38.491 23.212 38.53 23.102 38.573 23 38.613 22.917 38.661 22.851 38.715 22.795 38.771 22.755 38.826 22.729 38.854 22.711 38.889 22.705 38.917 22.705 38.948 22.705 38.991 22.711 39.039 22.72 39.074 22.731 39.113 22.755 39.148 22.776 39.176 22.795 39.208 22.822 39.235 22.851 39.255 22.887 39.279 22.917 39.298 22.962 39.311 23.008 39.338 23.102 39.354 23.206 39.354 23.418 39.318 23.76" fill="#974578" clip-rule="evenodd" fill-rule="evenodd"/>
  <polygon id="svg_15" points="41.378 28.17 41.358 28.05 41.351 27.956 41.351 27.89 41.358 27.835 41.366 27.786 41.371 27.724 41.386 27.649 41.395 27.558 41.399 27.476 41.407 27.409 41.414 27.363 41.414 27.334 41.386 27.313 41.34 27.298 41.276 27.29 41.186 27.287 39.429 26.95 39.133 26.908 39.125 26.983 39.113 27.055 39.105 27.101 39.102 27.176 39.105 27.278 39.113 27.416 39.121 27.449 39.125 27.482 39.148 27.527 39.168 27.558 39.204 27.593 39.235 27.629 39.279 27.66 39.326 27.695 39.44 27.764 39.586 27.835 39.751 27.892 39.941 27.956 41.119 28.125 41.378 28.17" fill="#FFFFFF" clip-rule="evenodd" fill-rule="evenodd"/>
  <polygon id="svg_16" points="39.133 25.857 41.414 26.32 41.399 26.218 41.395 26.121 41.386 26.025 41.395 25.944 41.399 25.857 41.399 25.767 41.395 25.662 41.378 25.56 41.366 25.534 41.351 25.514 41.331 25.487 41.303 25.458 41.229 25.403 41.126 25.348 40.988 25.294 40.831 25.234 40.646 25.179 40.433 25.123 40.22 25.068 40.023 25.012 39.838 24.966 39.68 24.921 39.531 24.891 39.409 24.855 39.298 24.828 39.208 24.809 39.133 25.857" fill="#FFFFFF" clip-rule="evenodd" fill-rule="evenodd"/>
  <polygon id="svg_17" points="26.86 26.534 26.821 23.547 26.821 23.405 26.821 23.268 26.825 23.146 26.841 23.028 26.86 22.917 26.888 22.822 26.916 22.731 26.952 22.649 26.99 22.583 27.03 22.521 27.085 22.468 27.141 22.417 27.195 22.386 27.266 22.356 27.334 22.339 27.408 22.33 27.463 22.33 27.511 22.343 27.558 22.356 27.601 22.386 27.633 22.417 27.668 22.461 27.696 22.507 27.723 22.563 27.743 22.625 27.763 22.694 27.786 22.776 27.798 22.871 27.826 23.084 27.846 23.334 27.889 26.534 28.094 26.462 28.354 26.396 28.653 26.325 28.96 26.259 29.106 26.218 29.248 26.183 29.378 26.144 29.497 26.101 29.59 26.066 29.674 26.025 29.702 26.006 29.728 25.986 29.74 25.964 29.756 25.944 29.804 25.767 29.847 25.569 29.877 25.356 29.898 25.123 29.922 24.904 29.933 24.737 29.949 24.622 29.961 24.556 29.969 24.514 29.976 24.474 29.976 24.429 29.976 24.383 29.867 23.461 29.851 23.461 29.851 23.454 29.851 23.438 29.867 23.418 29.871 23.35 29.895 23.268 29.926 23.173 29.976 23.064 30.001 23.008 30.036 22.962 30.08 22.913 30.126 22.878 30.174 22.842 30.222 22.815 30.284 22.802 30.343 22.787 30.367 22.787 30.395 22.795 30.415 22.802 30.434 22.807 30.48 22.842 30.529 22.887 30.576 22.938 30.62 23.015 30.666 23.095 30.714 23.186 30.757 23.288 30.797 23.381 30.825 23.481 30.851 23.576 30.878 23.669 30.891 23.769 30.907 23.855 30.915 23.946 30.919 24.115 30.927 24.268 30.934 24.398 30.934 24.514 30.927 24.708 30.915 24.911 30.899 25.099 30.887 25.294 30.863 25.487 30.843 25.675 30.825 25.859 30.805 26.046 30.788 26.137 30.776 26.223 30.757 26.314 30.729 26.396 30.702 26.471 30.666 26.554 30.63 26.629 30.592 26.695 30.548 26.766 30.501 26.833 30.453 26.899 30.399 26.963 30.339 27.019 30.275 27.081 30.209 27.137 30.138 27.185 30.055 27.232 29.953 27.278 29.824 27.325 29.689 27.369 29.367 27.456 29.016 27.531 28.673 27.604 28.354 27.677 28.078 27.735 27.889 27.791 27.874 27.928 27.866 28.094 27.861 28.292 27.866 28.504 27.874 28.622 27.866 28.724 27.861 28.819 27.846 28.91 27.826 28.986 27.806 29.059 27.771 29.118 27.735 29.174 27.704 29.229 27.66 29.271 27.621 29.304 27.573 29.34 27.527 29.358 27.476 29.374 27.428 29.387 27.373 29.387 27.313 29.394 27.251 29.394 27.195 29.378 27.149 29.358 27.108 29.322 27.065 29.282 27.03 29.236 27.006 29.174 26.896 28.17 26.86 27.791 26.561 27.759 26.21 27.715 25.841 27.668 25.466 27.613 25.106 27.558 24.792 27.5 24.663 27.465 24.548 27.42 24.458 27.389 24.391 27.345 24.288 27.267 24.198 27.176 24.11 27.081 24.031 26.972 23.973 26.853 23.91 26.74 23.862 26.6 23.823 26.462 23.788 26.32 23.752 26.163 23.724 25.999 23.697 25.822 23.677 25.636 23.658 25.438 23.642 25.234 23.638 25.021 23.623 24.622 23.615 24.321 23.615 24.212 23.623 24.115 23.63 24.057 23.638 24.008 23.638 23.931 23.642 23.855 23.658 23.78 23.669 23.705 23.693 23.623 23.72 23.54 23.744 23.461 23.78 23.379 23.823 23.303 23.862 23.232 23.91 23.173 23.965 23.122 24.028 23.09 24.087 23.064 24.15 23.048 24.224 23.043 24.292 23.075 24.355 23.102 24.383 23.122 24.411 23.166 24.445 23.221 24.485 23.294 24.52 23.379 24.548 23.454 24.576 23.521 24.595 23.591 24.595 24.727 24.706 25.356 24.752 25.645 24.8 25.884 24.819 25.986 24.848 26.072 24.875 26.148 24.903 26.218 24.918 26.23 24.929 26.246 24.958 26.259 24.993 26.274 25.068 26.3 25.162 26.32 25.41 26.37 25.702 26.407 26.013 26.443 26.325 26.478 26.612 26.507 26.86 26.534" fill="#974578" clip-rule="evenodd" fill-rule="evenodd"/>
  <polygon id="svg_18" points="25.348 29.56 25.829 29.543 26.305 29.535 26.786 29.524 27.258 29.517 27.735 29.504 28.216 29.495 28.696 29.482 29.173 29.469 29.606 29.535 29.988 29.6 30.324 29.666 30.611 29.736 30.741 29.769 30.86 29.804 30.965 29.839 31.064 29.872 31.147 29.914 31.221 29.95 31.276 29.981 31.332 30.025 31.411 30.091 31.49 30.167 31.565 30.24 31.631 30.324 31.695 30.4 31.75 30.482 31.797 30.564 31.844 30.646 31.884 30.732 31.92 30.832 31.946 30.935 31.974 31.049 31.994 31.167 32.01 31.297 32.021 31.435 32.021 31.569 32.037 31.836 32.042 32.029 32.042 32.152 32.042 32.207 31.931 34.768 31.9 37.752 32.151 41.028 32.16 41.165 32.151 41.298 32.131 41.425 32.097 41.556 32.057 41.684 32.002 41.805 31.939 41.917 31.864 42.038 31.824 42.094 31.781 42.14 31.742 42.18 31.699 42.215 31.667 42.241 31.624 42.254 31.593 42.27 31.556 42.27 31.522 42.27 31.49 42.254 31.462 42.241 31.426 42.215 31.399 42.18 31.364 42.14 31.335 42.094 31.309 42.038 31.253 41.917 31.214 41.805 31.174 41.684 31.147 41.556 31.12 41.425 31.104 41.298 31.092 41.165 31.092 41.028 30.942 38.634 30.907 35.111 30.974 32.451 30.974 32.404 30.974 32.297 30.965 32.132 30.962 31.912 30.946 31.679 30.927 31.49 30.915 31.411 30.899 31.345 30.887 31.282 30.863 31.233 30.832 31.152 30.785 31.076 30.729 31.01 30.666 30.944 30.627 30.907 30.556 30.872 30.453 30.837 30.313 30.806 30.119 30.762 29.871 30.721 29.56 30.686 29.173 30.646 29.114 30.646 29.051 30.646 29.003 30.655 28.957 30.659 28.914 30.668 28.881 30.681 28.846 30.694 28.819 30.714 28.764 30.762 28.7 30.832 28.645 30.918 28.594 31.019 28.476 31.249 28.361 31.51 28.244 31.775 28.121 32.038 28.059 32.152 27.991 32.269 27.928 32.374 27.861 32.451 28.311 32.459 28.716 32.468 29.071 32.486 29.375 32.506 29.508 32.522 29.634 32.542 29.737 32.558 29.832 32.577 29.915 32.597 29.98 32.617 30.036 32.646 30.08 32.663 30.138 32.72 30.194 32.774 30.241 32.836 30.284 32.896 30.313 32.967 30.339 33.027 30.343 33.104 30.351 33.174 30.339 33.246 30.324 33.322 30.304 33.387 30.275 33.443 30.249 33.506 30.213 33.555 30.174 33.602 30.135 33.646 30.083 33.677 30.029 33.713 29.976 33.739 29.915 33.759 29.847 33.783 29.768 33.788 29.694 33.794 29.619 33.803 29.497 33.81 29.347 33.81 29.169 33.803 28.96 33.788 28.736 33.774 28.476 33.748 28.196 33.713 27.889 33.672 27.889 35.401 28.374 35.41 28.811 35.426 29.192 35.445 29.524 35.466 29.796 35.493 30.017 35.521 30.107 35.532 30.181 35.557 30.249 35.568 30.296 35.588 30.378 35.63 30.445 35.669 30.509 35.717 30.556 35.766 30.592 35.82 30.611 35.882 30.627 35.947 30.627 36.014 30.62 36.075 30.611 36.143 30.6 36.206 30.576 36.272 30.556 36.337 30.529 36.395 30.497 36.449 30.462 36.514 30.419 36.57 30.371 36.617 30.316 36.663 30.249 36.698 30.181 36.729 30.1 36.754 30.009 36.773 29.915 36.784 28.29 36.656 27.889 36.656 27.928 41.703 27.92 41.84 27.917 41.952 27.909 42.073 27.892 42.175 27.874 42.261 27.854 42.345 27.826 42.417 27.798 42.483 27.763 42.536 27.732 42.585 27.688 42.62 27.656 42.651 27.613 42.671 27.573 42.687 27.527 42.695 27.483 42.695 27.396 42.687 27.325 42.68 27.271 42.687 27.223 42.695 27.195 42.697 27.167 42.697 27.157 42.687 27.157 42.671 27.129 42.667 27.101 42.66 27.081 42.64 27.053 42.62 27.038 42.594 27.018 42.55 27.006 42.51 26.982 42.464 26.971 42.387 26.963 42.261 26.952 42.1 26.944 41.891 26.936 41.639 26.936 41.339 26.928 40.998 26.928 40.616 26.896 36.656 26.794 36.674 26.703 36.689 26.628 36.698 26.561 36.703 25.238 36.745 24.993 36.8 24.809 36.828 24.738 36.833 24.678 36.84 24.634 36.833 24.614 36.828 24.556 36.811 24.493 36.8 24.437 36.78 24.391 36.758 24.348 36.738 24.308 36.709 24.268 36.683 24.241 36.652 24.213 36.617 24.186 36.572 24.163 36.533 24.15 36.495 24.142 36.442 24.138 36.39 24.138 36.339 24.138 36.281 24.142 36.197 24.158 36.116 24.186 36.04 24.224 35.965 24.28 35.892 24.343 35.816 24.418 35.745 24.505 35.669 24.556 35.643 24.622 35.607 24.698 35.579 24.792 35.557 24.895 35.528 25.012 35.506 25.144 35.485 25.284 35.466 25.608 35.437 25.986 35.419 26.416 35.401 26.896 35.401 26.896 33.722 26.518 33.774 26.175 33.829 25.859 33.869 25.588 33.904 25.348 33.935 25.144 33.952 24.969 33.965 24.835 33.965 24.752 33.98 24.686 33.98 24.622 33.972 24.568 33.965 24.52 33.945 24.485 33.926 24.45 33.896 24.429 33.86 24.398 33.788 24.363 33.713 24.327 33.63 24.3 33.546 24.28 33.473 24.268 33.404 24.272 33.343 24.288 33.295 24.288 33.235 24.3 33.165 24.327 33.108 24.363 33.052 24.411 32.996 24.465 32.948 24.532 32.896 24.607 32.856 24.698 32.819 24.792 32.774 24.903 32.748 25.02 32.714 25.144 32.688 25.281 32.663 25.43 32.646 25.588 32.624 25.887 32.597 26.144 32.571 26.341 32.551 26.505 32.531 26.62 32.515 26.71 32.506 26.759 32.501 26.777 32.501 26.751 32.404 26.71 32.291 26.663 32.169 26.6 32.029 26.538 31.883 26.462 31.735 26.379 31.584 26.302 31.438 26.21 31.289 26.115 31.152 26.018 31.021 25.922 30.907 25.82 30.806 25.726 30.714 25.674 30.681 25.627 30.655 25.58 30.628 25.534 30.604 25.504 30.62 25.422 30.659 25.348 30.686 25.238 30.73 25.088 30.771 24.891 30.817 24.678 30.872 24.485 30.918 24.32 30.975 24.178 31.03 24.056 31.076 23.958 31.132 23.926 31.159 23.89 31.187 23.862 31.207 23.843 31.233 23.772 31.345 23.724 31.446 23.705 31.495 23.693 31.542 23.686 31.593 23.677 31.639 23.669 31.723 23.669 31.79 23.677 31.836 23.693 31.865 23.732 32.542 23.843 36.281 23.843 36.456 23.843 36.652 23.843 36.854 23.843 37.08 23.8 38.716 23.795 39.133 23.772 39.522 23.752 39.887 23.732 40.222 23.697 40.532 23.666 40.811 23.63 41.057 23.583 41.286 23.563 41.388 23.536 41.48 23.508 41.57 23.473 41.654 23.445 41.729 23.41 41.798 23.377 41.859 23.334 41.915 23.295 41.961 23.252 42.007 23.212 42.045 23.165 42.073 23.118 42.1 23.067 42.113 23.015 42.124 22.961 42.124 22.897 42.133 22.842 42.133 22.787 42.12 22.74 42.104 22.7 42.078 22.665 42.045 22.629 42.001 22.609 41.952 22.571 41.853 22.542 41.749 22.52 41.654 22.515 41.556 22.515 41.47 22.515 41.407 22.515 41.359 22.515 41.324 22.776 38.129 22.807 35.111 22.665 32.542 22.657 32.515 22.649 32.468 22.645 32.411 22.637 32.345 22.637 32.152 22.645 31.912 22.649 31.771 22.673 31.633 22.7 31.49 22.731 31.338 22.776 31.187 22.83 31.03 22.89 30.872 22.961 30.714 23.035 30.556 23.118 30.418 23.165 30.352 23.205 30.289 23.252 30.238 23.303 30.183 23.354 30.136 23.405 30.083 23.461 30.045 23.512 30.01 23.567 29.977 23.63 29.94 23.693 29.914 23.752 29.894 23.882 29.85 24.031 29.813 24.206 29.764 24.398 29.721 24.607 29.682 24.835 29.637 25.08 29.6 25.348 29.56" fill="#974578" clip-rule="evenodd" fill-rule="evenodd"/>
  <polygon id="svg_19" points="26.848 30.556 27.814 30.556 27.325 31.578 26.848 30.556" fill="#FFFFFF" clip-rule="evenodd" fill-rule="evenodd"/>
  <g id="svg_20">
   <g id="svg_21">
    <path id="svg_22" d="m22.503,54.068001c-0.393,0.834 -0.792,1.666 -1.198999,2.496998c-0.076,0.048 -0.123001,0.194 -0.134001,0.439003c-0.068001,0.246998 -0.112,0.396 -0.134001,0.440998c-0.154999,0.206001 -0.406,0.262001 -0.743,0.154999c-0.451,-0.219997 -0.59,-0.480999 -0.429998,-0.769997c-0.02,-0.067001 0.045,-0.134003 0.192999,-0.200001c0.146,-0.066002 0.238001,-0.134003 0.273001,-0.201c0.528,-0.982002 1.045,-1.969002 1.550999,-2.957001c-0.146,0.011002 -0.552999,-0.021999 -1.223,-0.141998c-0.050999,0 -0.094,-0.011002 -0.129999,-0.032001c-0.361,-0.063 -0.596001,-0.179001 -0.702,-0.333c-0.296001,-0.335999 -0.348001,-0.523998 -0.173,-0.560001c0.028,-0.042999 0.147999,0.006001 0.361,0.141003c0.107,0.066998 0.202999,0.112999 0.289,0.134998c0.372,0.196999 0.789,0.32 1.24,0.359001c0.047001,-0.002003 0.120001,-0.007 0.218,-0.013c0.084,0.016998 0.174999,0.021 0.271,0.013c0.024,-0.045002 0.052,-0.101002 0.087,-0.169003c0.045,-0.088997 0.104,-0.158997 0.174,-0.208c0.035,0.018002 0.078001,0.025002 0.125,0.02c0.204,0.132 0.382,0.271 0.534,0.426003c0.089001,0.097 0.126999,0.209999 0.112999,0.34c-0.052,0.115997 -0.125999,0.18 -0.223,0.190998c-0.153999,0.042 -0.268999,0.183002 -0.337999,0.428001z" fill="#974578"/>
    <path id="svg_23" d="m31.493999,57.438999c-0.005999,0.188999 -0.012999,0.379002 -0.019999,0.567001c-0.159,1.459999 -1.692001,2.273998 -4.496,1.807999c-1.531,-0.299999 -2.529001,-0.847 -2.980001,-1.467999c-0.220999,-0.257 -0.181,-0.43 0.105001,-0.521999c0.025999,-0.005001 0.052999,-0.010002 0.08,-0.015003c0.17,-0.051998 0.324999,-0.067997 0.469,-0.051998c0.036999,0.037998 0.079,0.063 0.125,0.076c-0.046,0.145 -0.002001,0.315998 0.139,0.515999c0.390999,0.530003 1.108,0.933002 2.132,1.132c2.171999,0.354 3.379,-0.355999 3.549,-1.745998c-0.882999,0.27 -1.880001,0.320999 -2.927999,0.128998c-2.045,-0.461998 -2.941,-1.364998 -2.780001,-2.334999c0.467001,-0.945999 1.563999,-1.111 3.384001,-0.82c2.029999,0.432999 3.119999,1.201 3.220999,2.73zm-0.857,-0.230999c-0.064999,-1.098 -0.893,-1.714001 -2.438999,-2.091c-1.381001,-0.181 -2.240999,-0.033001 -2.625,0.623001c-0.094,0.727997 0.614,1.371998 2.177999,1.717999c1.537001,0.197998 2.511,0.048 2.886,-0.25z" fill="#974578"/>
    <path id="svg_24" d="m36.223,55.882999c0.158001,0.907001 0.319,1.813 0.482002,2.720001c-0.034,0.082001 0.015999,0.228001 0.153,0.434998c0.092999,0.240002 0.146,0.384003 0.155998,0.435001c-0.000999,0.256001 -0.172001,0.438999 -0.509998,0.541c-0.499001,0.075001 -0.771,-0.060001 -0.813,-0.384998c-0.057003,-0.044003 -0.043003,-0.135002 0.036999,-0.271c0.078999,-0.138 0.112999,-0.242001 0.102001,-0.317001c-0.157001,-1.098999 -0.311001,-2.196999 -0.461002,-3.296001c-0.114998,0.091 -0.466999,0.292 -1.084999,0.571003c-0.041,0.028999 -0.083,0.044998 -0.125,0.049c-0.332001,0.151997 -0.591,0.188999 -0.764999,0.121998c-0.436001,-0.107998 -0.584003,-0.232998 -0.460999,-0.361c-0.001003,-0.050999 0.124996,-0.079998 0.375996,-0.089001c0.126003,-0.006001 0.230003,-0.022999 0.314003,-0.052998c0.417,-0.049 0.828999,-0.184002 1.221001,-0.403999c0.037998,-0.029003 0.094997,-0.073002 0.170998,-0.133003c0.079002,-0.034 0.156002,-0.081997 0.230999,-0.143997c-0.007,-0.051003 -0.014999,-0.112 -0.024998,-0.188c-0.013,-0.100002 -0.005001,-0.188 0.024998,-0.269001c0.039001,-0.007 0.078003,-0.024002 0.114002,-0.055c0.242001,-0.007 0.466999,0.007999 0.68,0.049999c0.127998,0.029999 0.223999,0.103001 0.286999,0.219002c0.022999,0.125 -0.000999,0.217999 -0.074001,0.280998c-0.102997,0.121002 -0.114998,0.303001 -0.029999,0.542z" fill="#974578"/>
    <path id="svg_25" d="m45.563,53.604c0.104,0.159 0.208,0.319 0.313,0.478001c0.721001,1.285999 -0.033001,2.815998 -2.596001,4.002998c-1.426998,0.612 -2.57,0.723 -3.313,0.468002c-0.334,-0.087002 -0.405998,-0.25 -0.228001,-0.485001c0.019001,-0.019001 0.038002,-0.038002 0.057003,-0.056c0.106998,-0.138 0.223999,-0.237 0.351997,-0.305c0.052002,0.010998 0.102001,0.007999 0.146,-0.007c0.049,0.144001 0.188,0.259998 0.423,0.341999c0.638,0.216 1.466,0.143002 2.419003,-0.268002c1.982998,-0.926998 2.533997,-2.184998 1.863998,-3.419998c-0.567001,0.721001 -1.353001,1.324001 -2.321999,1.755001c-1.948002,0.766998 -3.218002,0.525997 -3.651001,-0.359001c-0.167,-1.040001 0.646,-1.789001 2.315998,-2.570999c1.926003,-0.783001 3.255001,-0.774002 4.220001,0.424999zm-0.838001,0.297001c-0.688,-0.863003 -1.718998,-0.901001 -3.212997,-0.343002c-1.243,0.628002 -1.868,1.229 -1.802002,1.982002c0.347,0.648998 1.309002,0.784 2.792999,0.188999c1.377003,-0.698002 2.087002,-1.370998 2.222,-1.827999z" fill="#974578"/>
   </g>
  </g>
  <text font-style="normal" font-weight="normal" stroke="#666666" transform="matrix(1.39095 0 0 1.55926 -139.157 -16.4254)" xml:space="preserve" text-anchor="start" font-family="'Trebuchet MS', Gadget, sans-serif" font-size="22" id="svg_91" y="33.977529" x="279.055489" stroke-width="0.25" fill="#666666">信息资源管理系</text>
  <text stroke="#666666" transform="matrix(1.14694 0 0 1.17204 -58.857 -9.10215)" xml:space="preserve" text-anchor="start" font-family="'Trebuchet MS', Gadget, sans-serif" font-size="15" id="svg_92" y="55.908256" x="117.473589" stroke-width="0.25" fill="#666666">Department of Information Resource Management</text>
  <text font-weight="bold" transform="matrix(1.14951 0 0 1.35077 -59.031 14.2521)" xml:space="preserve" text-anchor="start" font-family="Helvetica, Arial, sans-serif" font-size="22" id="svg_94" y="16.253005" x="116.796076" stroke-width="0.25" fill="#974578">南开大学</text>
  <text font-weight="normal" stroke="#666666" xml:space="preserve" text-anchor="start" font-family="Helvetica, Arial, sans-serif" font-size="22" id="svg_95" y="36" x="179.5" stroke-width="0.25" fill="#666666">商学院</text>
 </g>
</svg>